<svg width="4244" height="2271" xmlns="http://www.w3.org/2000/svg" xmlns:xlink="http://www.w3.org/1999/xlink" xml:space="preserve" overflow="hidden"><defs><clipPath id="clip0"><rect x="64" y="127" width="4244" height="2271"/></clipPath></defs><g clip-path="url(#clip0)" transform="translate(-64 -127)"><path d="M2056.99 281.946 1639.5 262.5" stroke="#000000" stroke-width="3.4375" stroke-miterlimit="8" stroke-dasharray="13.75 10.3125" fill="none" fill-rule="evenodd"/><path d="M0 0 417.487 308.106" stroke="#000000" stroke-width="3.4375" stroke-miterlimit="8" stroke-dasharray="13.75 10.3125" fill="none" fill-rule="evenodd" transform="matrix(-1 0 0 1 2056.99 390.5)"/><path d="M2056.7 281.581 2288.18 281.581 2288.18 395.066 2056.7 395.066Z" fill="#DAE3F3" fill-rule="evenodd"/><path d="M2288.18 279.289 2288.18 510.844" stroke="#000000" stroke-width="4.58333" stroke-linejoin="round" stroke-miterlimit="10" fill="none" fill-rule="evenodd"/><path d="M2288.18 732.593 2288.18 850.662" stroke="#000000" stroke-width="4.58333" stroke-linejoin="round" stroke-miterlimit="10" fill="none" fill-rule="evenodd"/><path d="M2519.67 279.289 2519.67 510.844" stroke="#000000" stroke-width="4.58333" stroke-linejoin="round" stroke-miterlimit="10" fill="none" fill-rule="evenodd"/><path d="M2519.67 732.593 2519.67 850.662" stroke="#000000" stroke-width="4.58333" stroke-linejoin="round" stroke-miterlimit="10" fill="none" fill-rule="evenodd"/><path d="M2751.16 279.289 2751.16 510.844" stroke="#000000" stroke-width="4.58333" stroke-linejoin="round" stroke-miterlimit="10" fill="none" fill-rule="evenodd"/><path d="M2751.16 732.593 2751.16 850.662" stroke="#000000" stroke-width="4.58333" stroke-linejoin="round" stroke-miterlimit="10" fill="none" fill-rule="evenodd"/><path d="M2982.65 279.289 2982.65 510.844" stroke="#000000" stroke-width="4.58333" stroke-linejoin="round" stroke-miterlimit="10" fill="none" fill-rule="evenodd"/><path d="M2982.65 732.593 2982.65 850.662" stroke="#000000" stroke-width="4.58333" stroke-linejoin="round" stroke-miterlimit="10" fill="none" fill-rule="evenodd"/><path d="M3214.13 279.289 3214.13 510.844" stroke="#000000" stroke-width="4.58333" stroke-linejoin="round" stroke-miterlimit="10" fill="none" fill-rule="evenodd"/><path d="M3214.13 732.593 3214.13 850.662" stroke="#000000" stroke-width="4.58333" stroke-linejoin="round" stroke-miterlimit="10" fill="none" fill-rule="evenodd"/><path d="M3445.62 279.289 3445.62 510.844" stroke="#000000" stroke-width="4.58333" stroke-linejoin="round" stroke-miterlimit="10" fill="none" fill-rule="evenodd"/><path d="M3445.62 732.593 3445.62 850.662" stroke="#000000" stroke-width="4.58333" stroke-linejoin="round" stroke-miterlimit="10" fill="none" fill-rule="evenodd"/><path d="M3677.11 279.289 3677.11 510.844" stroke="#000000" stroke-width="4.58333" stroke-linejoin="round" stroke-miterlimit="10" fill="none" fill-rule="evenodd"/><path d="M3677.11 732.593 3677.11 850.662" stroke="#000000" stroke-width="4.58333" stroke-linejoin="round" stroke-miterlimit="10" fill="none" fill-rule="evenodd"/><path d="M2054.4 395.066 3910.89 395.066" stroke="#000000" stroke-width="4.58333" stroke-linejoin="round" stroke-miterlimit="10" fill="none" fill-rule="evenodd"/><path d="M2054.4 508.552 3910.89 508.552" stroke="#000000" stroke-width="4.58333" stroke-linejoin="round" stroke-miterlimit="10" fill="none" fill-rule="evenodd"/><path d="M2054.4 734.885 3910.89 734.885" stroke="#000000" stroke-width="4.58333" stroke-linejoin="round" stroke-miterlimit="10" fill="none" fill-rule="evenodd"/><path d="M2056.7 279.289 2056.7 850.662" stroke="#000000" stroke-width="4.58333" stroke-linejoin="round" stroke-miterlimit="10" fill="none" fill-rule="evenodd"/><path d="M3908.6 279.289 3908.6 850.662" stroke="#000000" stroke-width="4.58333" stroke-linejoin="round" stroke-miterlimit="10" fill="none" fill-rule="evenodd"/><path d="M2054.4 281.581 3910.89 281.581" stroke="#000000" stroke-width="4.58333" stroke-linejoin="round" stroke-miterlimit="10" fill="none" fill-rule="evenodd"/><path d="M2054.4 848.37 3910.89 848.37" stroke="#000000" stroke-width="4.58333" stroke-linejoin="round" stroke-miterlimit="10" fill="none" fill-rule="evenodd"/><text font-family="Times New Roman,Times New Roman_MSFontService,sans-serif" font-weight="700" font-size="83" transform="matrix(6.12323e-17 1 -1 6.12323e-17 2952.79 587)">···</text><rect x="299.5" y="262.5" width="1340" height="436" stroke="#000000" stroke-width="4.58333" stroke-miterlimit="8" fill="#DAE3F3" fill-opacity="0.498039"/><rect x="378.5" y="493.5" width="92.0001" height="93.9998" stroke="#000000" stroke-width="4.58333" stroke-miterlimit="8" fill="#FFFFFF"/><rect x="549.5" y="493.5" width="144" height="93.9998" stroke="#000000" stroke-width="4.58333" stroke-miterlimit="8" fill="#FFFFFF"/><rect x="772.5" y="493.5" width="227" height="93.9998" stroke="#000000" stroke-width="4.58333" stroke-miterlimit="8" fill="#FFFFFF"/><rect x="1079.5" y="493.5" width="494" height="93.9998" stroke="#000000" stroke-width="4.58333" stroke-miterlimit="8" fill="#FFFFFF"/><text font-family="Times New Roman,Times New Roman_MSFontService,sans-serif" font-weight="400" font-size="73" transform="matrix(1 0 0 1 354.24 466)">dirty<tspan font-size="73" x="199.212" y="0">state</tspan><tspan font-size="73" x="451.094" y="0">client</tspan><tspan font-size="73" x="922.046" y="0">tag</tspan><tspan font-size="73" x="51.2761" y="198">1</tspan><tspan font-size="73" x="249.866" y="198">2</tspan><tspan font-style="italic" font-size="73" x="411.093" y="198">nClients</tspan><tspan font-size="73" x="936.076" y="198">13</tspan></text><path d="M3929.5 282.5C3959.6 282.5 3984 303.364 3984 329.1L3984 518.9C3984 544.636 4008.4 565.5 4038.5 565.5 4008.4 565.5 3984 586.364 3984 612.1L3984 801.9C3984 827.636 3959.6 848.5 3929.5 848.5" stroke="#000000" stroke-width="3.4375" stroke-miterlimit="8" fill="none" fill-rule="evenodd"/><text font-family="Times New Roman,Times New Roman_MSFontService,sans-serif" font-weight="400" font-size="73" transform="matrix(1 0 0 1 4070.86 547)">1024<tspan font-size="73" x="18.9063" y="79">sets</tspan><tspan font-size="73" x="-1191.06" y="532">8</tspan><tspan font-size="73" x="-1136.06" y="532">ways</tspan></text><path d="M3909.5 883.5C3909.5 913.324 3888.83 937.501 3863.33 937.501L3029.67 937.501C3004.17 937.501 2983.5 961.678 2983.5 991.502 2983.5 961.678 2962.83 937.501 2937.33 937.501L2103.67 937.501C2078.17 937.501 2057.5 913.324 2057.5 883.5" stroke="#000000" stroke-width="3.4375" stroke-miterlimit="8" fill="none" fill-rule="evenodd"/><text font-family="Times New Roman,Times New Roman_MSFontService,sans-serif" font-weight="400" font-size="73" transform="matrix(1 0 0 1 349.638 356)">DirectoryEntry<tspan font-size="83" x="2474.88" y="-124">Directory</tspan><tspan font-size="73" x="2519.86" y="1925">4</tspan><tspan font-size="73" x="2574.86" y="1925">banks</tspan></text><path d="M3909.5 2085.5C3909.5 2115.32 3888.83 2139.5 3863.33 2139.5L3029.67 2139.5C3004.17 2139.5 2983.5 2163.68 2983.5 2193.5 2983.5 2163.68 2962.83 2139.5 2937.33 2139.5L2103.67 2139.5C2078.17 2139.5 2057.5 2115.32 2057.5 2085.5" stroke="#000000" stroke-width="3.4375" stroke-miterlimit="8" fill="none" fill-rule="evenodd"/><path d="M3939.5 1493.5C3969.6 1493.5 3994 1514.36 3994 1540.1L3994 1727.9C3994 1753.64 4018.4 1774.5 4048.5 1774.5 4018.4 1774.5 3994 1795.36 3994 1821.1L3994 2008.9C3994 2034.64 3969.6 2055.5 3939.5 2055.5" stroke="#000000" stroke-width="3.4375" stroke-miterlimit="8" fill="none" fill-rule="evenodd"/><text font-family="Times New Roman,Times New Roman_MSFontService,sans-serif" font-weight="400" font-size="73" transform="matrix(1 0 0 1 4080.63 1759)">16384<tspan font-size="73" x="21.4731" y="79">rows</tspan><tspan font-size="83" x="-1311.11" y="-319">BankedStore</tspan><tspan font-size="73" x="-1897.23" y="-423">8</tspan><tspan font-size="73" x="-1842.23" y="-423">bytes</tspan></text><path d="M2527.3 1603.5 2975.57 1603.5" stroke="#000000" stroke-width="4.58333" stroke-linejoin="round" stroke-miterlimit="10" fill="none" fill-rule="evenodd"/><path d="M2527.3 1713.5 2975.57 1713.5" stroke="#000000" stroke-width="4.58333" stroke-linejoin="round" stroke-miterlimit="10" fill="none" fill-rule="evenodd"/><path d="M2527.3 1945.04 2975.57 1945.04" stroke="#000000" stroke-width="4.58333" stroke-linejoin="round" stroke-miterlimit="10" fill="none" fill-rule="evenodd"/><path d="M2529.59 1491.2 2529.59 2057.33" stroke="#000000" stroke-width="4.58333" stroke-linejoin="round" stroke-miterlimit="10" fill="none" fill-rule="evenodd"/><path d="M2973.28 1491.2 2973.28 2057.33" stroke="#000000" stroke-width="4.58333" stroke-linejoin="round" stroke-miterlimit="10" fill="none" fill-rule="evenodd"/><path d="M2527.3 1493.5 2975.57 1493.5" stroke="#000000" stroke-width="4.58333" stroke-linejoin="round" stroke-miterlimit="10" fill="none" fill-rule="evenodd"/><path d="M2527.3 2055.04 2975.57 2055.04" stroke="#000000" stroke-width="4.58333" stroke-linejoin="round" stroke-miterlimit="10" fill="none" fill-rule="evenodd"/><text font-family="Times New Roman,Times New Roman_MSFontService,sans-serif" font-weight="700" font-size="83" transform="matrix(6.12323e-17 1 -1 6.12323e-17 2721.58 1798)">···</text><path d="M2989.72 1603.5 3437.99 1603.5" stroke="#000000" stroke-width="4.58333" stroke-linejoin="round" stroke-miterlimit="10" fill="none" fill-rule="evenodd"/><path d="M2989.72 1713.5 3437.99 1713.5" stroke="#000000" stroke-width="4.58333" stroke-linejoin="round" stroke-miterlimit="10" fill="none" fill-rule="evenodd"/><path d="M2989.72 1945.04 3437.99 1945.04" stroke="#000000" stroke-width="4.58333" stroke-linejoin="round" stroke-miterlimit="10" fill="none" fill-rule="evenodd"/><path d="M2992.01 1491.2 2992.01 2057.33" stroke="#000000" stroke-width="4.58333" stroke-linejoin="round" stroke-miterlimit="10" fill="none" fill-rule="evenodd"/><path d="M3435.7 1491.2 3435.7 2057.33" stroke="#000000" stroke-width="4.58333" stroke-linejoin="round" stroke-miterlimit="10" fill="none" fill-rule="evenodd"/><path d="M2989.72 1493.5 3437.99 1493.5" stroke="#000000" stroke-width="4.58333" stroke-linejoin="round" stroke-miterlimit="10" fill="none" fill-rule="evenodd"/><path d="M2989.72 2055.04 3437.99 2055.04" stroke="#000000" stroke-width="4.58333" stroke-linejoin="round" stroke-miterlimit="10" fill="none" fill-rule="evenodd"/><text font-family="Times New Roman,Times New Roman_MSFontService,sans-serif" font-weight="700" font-size="83" transform="matrix(6.12323e-17 1 -1 6.12323e-17 3184 1798)">···</text><path d="M3452.91 1603.5 3901.18 1603.5" stroke="#000000" stroke-width="4.58333" stroke-linejoin="round" stroke-miterlimit="10" fill="none" fill-rule="evenodd"/><path d="M3452.91 1713.5 3901.18 1713.5" stroke="#000000" stroke-width="4.58333" stroke-linejoin="round" stroke-miterlimit="10" fill="none" fill-rule="evenodd"/><path d="M3452.91 1945.04 3901.18 1945.04" stroke="#000000" stroke-width="4.58333" stroke-linejoin="round" stroke-miterlimit="10" fill="none" fill-rule="evenodd"/><path d="M3455.2 1491.2 3455.2 2057.33" stroke="#000000" stroke-width="4.58333" stroke-linejoin="round" stroke-miterlimit="10" fill="none" fill-rule="evenodd"/><path d="M3898.89 1491.2 3898.89 2057.33" stroke="#000000" stroke-width="4.58333" stroke-linejoin="round" stroke-miterlimit="10" fill="none" fill-rule="evenodd"/><path d="M3452.91 1493.5 3901.18 1493.5" stroke="#000000" stroke-width="4.58333" stroke-linejoin="round" stroke-miterlimit="10" fill="none" fill-rule="evenodd"/><path d="M3452.91 2055.04 3901.18 2055.04" stroke="#000000" stroke-width="4.58333" stroke-linejoin="round" stroke-miterlimit="10" fill="none" fill-rule="evenodd"/><text font-family="Times New Roman,Times New Roman_MSFontService,sans-serif" font-weight="700" font-size="83" transform="matrix(6.12323e-17 1 -1 6.12323e-17 3647.19 1798)">···</text><path d="M2066.68 1493.5 2510.37 1493.5 2510.37 1603.5 2066.68 1603.5Z" fill="#DAE3F3" fill-rule="evenodd"/><path d="M2064.39 1603.5 2512.66 1603.5" stroke="#000000" stroke-width="4.58333" stroke-linejoin="round" stroke-miterlimit="10" fill="none" fill-rule="evenodd"/><path d="M2064.39 1713.5 2512.66 1713.5" stroke="#000000" stroke-width="4.58333" stroke-linejoin="round" stroke-miterlimit="10" fill="none" fill-rule="evenodd"/><path d="M2064.39 1945.04 2512.66 1945.04" stroke="#000000" stroke-width="4.58333" stroke-linejoin="round" stroke-miterlimit="10" fill="none" fill-rule="evenodd"/><path d="M2066.68 1491.2 2066.68 2057.33" stroke="#000000" stroke-width="4.58333" stroke-linejoin="round" stroke-miterlimit="10" fill="none" fill-rule="evenodd"/><path d="M2510.37 1491.2 2510.37 2057.33" stroke="#000000" stroke-width="4.58333" stroke-linejoin="round" stroke-miterlimit="10" fill="none" fill-rule="evenodd"/><path d="M2064.39 1493.5 2512.66 1493.5" stroke="#000000" stroke-width="4.58333" stroke-linejoin="round" stroke-miterlimit="10" fill="none" fill-rule="evenodd"/><path d="M2064.39 2055.04 2512.66 2055.04" stroke="#000000" stroke-width="4.58333" stroke-linejoin="round" stroke-miterlimit="10" fill="none" fill-rule="evenodd"/><text font-family="Times New Roman,Times New Roman_MSFontService,sans-serif" font-weight="700" font-size="83" transform="matrix(6.12323e-17 1 -1 6.12323e-17 2258.67 1798)">···</text><path d="M2067.5 1458.5C2067.5 1434.75 2082.82 1415.5 2101.72 1415.5L2254.78 1415.5C2273.68 1415.5 2289 1396.25 2289 1372.5 2289 1396.25 2304.32 1415.5 2323.22 1415.5L2476.28 1415.5C2495.18 1415.5 2510.5 1434.75 2510.5 1458.5" stroke="#000000" stroke-width="3.4375" stroke-miterlimit="8" fill="none" fill-rule="evenodd"/><rect x="542.5" y="1476.5" width="495" height="94.0002" stroke="#000000" stroke-width="4.58333" stroke-miterlimit="8" fill="#FFFFFF"/><rect x="1037.5" y="1476.5" width="461" height="94.0002" stroke="#000000" stroke-width="4.58333" stroke-miterlimit="8" fill="#FFFFFF"/><rect x="1498.5" y="1476.5" width="387" height="94.0002" stroke="#000000" stroke-width="4.58333" stroke-miterlimit="8" fill="#FFFFFF"/><text font-family="Times New Roman,Times New Roman_MSFontService,sans-serif" font-weight="400" font-size="73" transform="matrix(1 0 0 1 744.711 1439)">tag<tspan font-size="73" x="481.882" y="0">set</tspan><tspan font-size="73" x="862.905" y="2">offset</tspan><tspan font-size="73" x="8.30737" y="219">13</tspan><tspan font-size="73" x="486.179" y="219">10</tspan><tspan font-size="73" x="926.993" y="220">6</tspan><tspan font-size="83" x="-559.877" y="52">Compact</tspan><tspan font-size="83" x="-546.127" y="151">Address</tspan></text><path d="M1498.53 1817.19 1498.5 1571.5" stroke="#000000" stroke-width="3.4375" stroke-miterlimit="8" stroke-dasharray="13.75 10.3125" fill="none" fill-rule="evenodd"/><path d="M0 0 0.446063 243.271" stroke="#000000" stroke-width="3.4375" stroke-miterlimit="8" stroke-dasharray="13.75 10.3125" fill="none" fill-rule="evenodd" transform="matrix(1 0 0 -1 1885.5 1813.77)"/><rect x="1697.5" y="1817.5" width="188" height="94.0002" stroke="#000000" stroke-width="3.4375" stroke-miterlimit="8" stroke-dasharray="13.75 10.3125" fill="#FFFFFF"/><rect x="791.5" y="1817.5" width="247" height="94.0002" stroke="#000000" stroke-width="4.58333" stroke-miterlimit="8" fill="#FFFFFF"/><text font-family="Times New Roman,Times New Roman_MSFontService,sans-serif" font-weight="400" font-size="73" transform="matrix(1 0 0 1 1227.39 1782)">set<tspan font-size="73" x="-374.167" y="0">way</tspan><tspan font-size="73" x="309.143" y="0">beat</tspan><tspan font-size="73" x="4.29663" y="217">10</tspan><tspan font-size="73" x="-331.484" y="217">3</tspan><tspan font-size="73" x="353.877" y="218">3</tspan></text><rect x="791.5" y="2155.5" width="760" height="94.9998" stroke="#000000" stroke-width="4.58333" stroke-miterlimit="8" fill="#FFFFFF"/><rect x="1551.5" y="2155.5" width="146" height="94.9998" stroke="#000000" stroke-width="4.58333" stroke-miterlimit="8" fill="#FFFFFF"/><path d="M0 0 0.000360892 244.044" stroke="#000000" stroke-width="3.4375" stroke-miterlimit="8" stroke-dasharray="13.75 10.3125" fill="none" fill-rule="evenodd" transform="matrix(1 0 0 -1 791.5 2155.54)"/><path d="M0 0 0.000360892 241.346" stroke="#000000" stroke-width="3.4375" stroke-miterlimit="8" stroke-dasharray="13.75 10.3125" fill="none" fill-rule="evenodd" transform="matrix(1 0 0 -1 1697.5 2155.85)"/><text font-family="Times New Roman,Times New Roman_MSFontService,sans-serif" font-weight="400" font-size="73" transform="matrix(1 0 0 1 1123.71 2119)">row<tspan font-size="73" x="408.708" y="3">bank</tspan><tspan font-size="73" x="20.0363" y="217">14</tspan><tspan font-size="73" x="482.129" y="217">2</tspan><tspan font-size="83" x="-811.235" y="-275">Directory</tspan><tspan font-size="83" x="-788.318" y="-176">Address</tspan><tspan font-size="73" x="649.342" y="-119">3</tspan></text><rect x="1499.5" y="1817.5" width="201" height="94.0002" stroke="#000000" stroke-width="3.4375" stroke-miterlimit="8" stroke-dasharray="13.75 10.3125" fill="#FFFFFF"/><text font-family="Times New Roman,Times New Roman_MSFontService,sans-serif" font-weight="400" font-size="83" transform="matrix(1 0 0 1 113.591 1148)">Physical<tspan font-size="83" x="4.58334" y="99">Address</tspan></text><rect x="534.5" y="1136.5" width="123" height="95.0002" stroke="#000000" stroke-width="3.4375" stroke-miterlimit="8" stroke-dasharray="13.75 10.3125" fill="#FFFFFF"/><rect x="657.5" y="1136.5" width="1266" height="95.0002" stroke="#000000" stroke-width="4.58333" stroke-miterlimit="8" fill="#FFFFFF"/><text font-family="Times New Roman,Times New Roman_MSFontService,sans-serif" font-weight="400" font-size="73" transform="matrix(1 0 0 1 482.848 1103)">1<tspan font-size="73" x="770.002" y="-1">28</tspan><tspan font-size="73" x="96.0439" y="-2">3</tspan></text><rect x="460.5" y="1136.5" width="73.9999" height="95.0002" stroke="#000000" stroke-width="4.58333" stroke-miterlimit="8" fill="#FFFFFF"/><path d="M543.098 1477.55 460.5 1232.5" stroke="#000000" stroke-width="3.4375" stroke-miterlimit="8" stroke-dasharray="13.75 10.3125" fill="none" fill-rule="evenodd"/><path d="M619.684 1477.55 534.5 1232.5" stroke="#000000" stroke-width="3.4375" stroke-miterlimit="8" stroke-dasharray="13.75 10.3125" fill="none" fill-rule="evenodd"/><path d="M0 0 34.0545 243.902" stroke="#000000" stroke-width="3.4375" stroke-miterlimit="8" stroke-dasharray="13.75 10.3125" fill="none" fill-rule="evenodd" transform="matrix(1 0 0 -1 623.5 1477.4)"/><path d="M0 0 37.6905 245.49" stroke="#000000" stroke-width="3.4375" stroke-miterlimit="8" stroke-dasharray="13.75 10.3125" fill="none" fill-rule="evenodd" transform="matrix(1 0 0 -1 1885.5 1476.99)"/><text font-family="Times New Roman,Times New Roman_MSFontService,sans-serif" font-weight="400" font-size="83" transform="matrix(1 0 0 1 257.477 2186)">BankedStore<tspan font-size="83" x="77.9167" y="99">Address</tspan></text><rect x="1038.5" y="1817.5" width="461" height="94.0002" stroke="#000000" stroke-width="4.58333" stroke-miterlimit="8" fill="#FFFFFF"/><text font-family="Times New Roman,Times New Roman_MSFontService,sans-serif" font-weight="400" font-size="73" transform="matrix(1 0 0 1 1729.68 1783)">boff</text></g></svg>