<svg width="3959" height="1446" xmlns="http://www.w3.org/2000/svg" xmlns:xlink="http://www.w3.org/1999/xlink" xml:space="preserve" overflow="hidden"><defs><clipPath id="clip0"><rect x="220" y="93" width="3959" height="1446"/></clipPath></defs><g clip-path="url(#clip0)" transform="translate(-220 -93)"><path d="M1322.5 963.939C1322.5 945.471 1337.47 930.5 1355.94 930.5L1812.06 930.5C1830.53 930.5 1845.5 945.471 1845.5 963.939L1845.5 1266.06C1845.5 1284.53 1830.53 1299.5 1812.06 1299.5L1355.94 1299.5C1337.47 1299.5 1322.5 1284.53 1322.5 1266.06Z" stroke="#000000" stroke-width="4.58333" stroke-miterlimit="8" fill="#FFFFFF" fill-rule="evenodd"/><text font-family="Times New Roman,Times New Roman_MSFontService,sans-serif" font-style="italic" font-weight="400" font-size="64" transform="matrix(1 0 0 1 1357.44 995)">s_pprobe<tspan font-size="64" x="0" y="70">w_pprobeackfirst</tspan><tspan font-size="64" x="0" y="139">w_pprobeacklast</tspan><tspan font-size="64" x="0" y="208">w_pprobeack</tspan><tspan font-size="64" x="0" y="277">s_writeback</tspan></text><path d="M353.5 960.167C353.5 944.887 365.887 932.5 381.167 932.5L748.833 932.5C764.113 932.5 776.5 944.887 776.5 960.167L776.5 1070.83C776.5 1086.11 764.113 1098.5 748.833 1098.5L381.167 1098.5C365.887 1098.5 353.5 1086.11 353.5 1070.83Z" stroke="#000000" stroke-width="4.58333" stroke-miterlimit="8" fill="#FFFFFF" fill-rule="evenodd"/><text font-family="Times New Roman,Times New Roman_MSFontService,sans-serif" font-style="italic" font-weight="400" font-size="64" transform="matrix(1 0 0 1 387.252 1000)">s_release<tspan font-size="64" x="0" y="70">w_releaseack</tspan></text><path d="M1884.5 957.667C1884.5 942.111 1897.11 929.5 1912.67 929.5L2235.33 929.5C2250.89 929.5 2263.5 942.111 2263.5 957.667L2263.5 1070.33C2263.5 1085.89 2250.89 1098.5 2235.33 1098.5L1912.67 1098.5C1897.11 1098.5 1884.5 1085.89 1884.5 1070.33Z" stroke="#000000" stroke-width="4.58333" stroke-miterlimit="8" fill="#FFFFFF" fill-rule="evenodd"/><text font-family="Times New Roman,Times New Roman_MSFontService,sans-serif" font-style="italic" font-weight="400" font-size="64" transform="matrix(1 0 0 1 1918.33 999)">w_grantack<tspan font-size="64" x="0" y="70">s_writeback</tspan></text><path d="M2303.5 948.834C2303.5 938.156 2312.16 929.5 2322.83 929.5L2663.17 929.5C2673.84 929.5 2682.5 938.156 2682.5 948.834L2682.5 1026.17C2682.5 1036.84 2673.84 1045.5 2663.17 1045.5L2322.83 1045.5C2312.16 1045.5 2303.5 1036.84 2303.5 1026.17Z" stroke="#000000" stroke-width="4.58333" stroke-miterlimit="8" fill="#FFFFFF" fill-rule="evenodd"/><text font-family="Times New Roman,Times New Roman_MSFontService,sans-serif" font-style="italic" font-weight="400" font-size="64" transform="matrix(1 0 0 1 2336.82 1006)">s_writeback</text><path d="M1797.37 624.269 1829.01 625.775 1860.31 627.903 1891.23 630.72 1921.71 634.1 1951.76 638.044 1981.31 642.614 2010.43 647.748 2039.04 653.508 2067.03 659.77 2094.52 666.595 2121.38 673.921 2147.62 681.751 2173.18 690.144 2198.05 698.976 2222.23 708.311 2245.66 718.086 2268.35 728.364 2290.23 739.083 2311.29 750.242 2331.48 761.78 2350.87 773.761 2369.25 786.124 2386.76 798.927 2403.28 812.049 2418.86 825.555 2433.37 839.444 2446.89 853.653 2459.28 868.186 2470.61 883.04 2480.83 898.233 2486.87 908.937 2482.88 911.191 2476.88 900.565 2476.97 900.716 2466.85 885.654 2466.93 885.765 2455.68 871.015 2455.76 871.112 2443.44 856.675 2443.53 856.767 2430.09 842.642 2430.17 842.719 2415.73 828.906 2415.81 828.982 2400.31 815.544 2400.39 815.607 2383.95 802.544 2384.02 802.6 2366.58 789.85 2366.66 789.902 2348.35 777.589 2348.42 777.637 2329.11 765.699 2329.18 765.74 2309.05 754.24 2309.11 754.275 2288.11 743.15 2288.18 743.183 2266.37 732.496 2266.43 732.525 2243.8 722.275 2243.87 722.303 2220.49 712.553 2220.55 712.576 2196.42 703.263 2196.48 703.285 2171.67 694.472 2171.72 694.49 2146.22 686.115 2146.28 686.134 2120.09 678.321 2120.15 678.336 2093.33 671.024 2093.39 671.037 2065.95 664.224 2066 664.237 2038.06 657.987 2038.11 657.997 2009.55 652.247 2009.6 652.257 1980.54 647.132 1980.59 647.14 1951.09 642.577 1951.14 642.585 1921.14 638.647 1921.19 638.653 1890.75 635.278 1890.79 635.282 1859.92 632.47 1859.97 632.474 1828.72 630.349 1828.77 630.352 1797.16 628.847ZM2494.9 899.595 2495.57 930.333 2470.58 912.425Z"/><path d="M702.669 43.1276 726.537 53.6754 749.329 65.04 770.936 77.3505 791.354 90.418 810.522 104.307 828.438 118.892 845.045 134.177 860.273 150.161 874.058 166.652 886.456 183.707 892.075 192.483 897.367 201.367 902.22 210.316 906.76 219.396 910.865 228.615 914.522 237.948 917.864 247.342 920.769 256.815 923.24 266.386 924.375 272.71 919.863 273.519 918.744 267.28 918.781 267.448 916.344 258.011 916.372 258.109 913.497 248.734 913.528 248.83 910.216 239.518 910.241 239.586 906.616 230.336 906.656 230.432 902.594 221.307 902.638 221.4 898.138 212.4 898.173 212.467 893.36 203.592 893.406 203.673 888.156 194.86 888.195 194.923 882.633 186.236 882.709 186.347 870.396 169.41 870.492 169.532 856.804 153.157 856.903 153.268 841.778 137.393 841.885 137.499 825.385 122.311 825.491 122.402 807.678 107.902 807.78 107.981 788.718 94.1682 788.827 94.2427 768.515 81.2427 768.616 81.3036 747.115 69.0536 747.227 69.1134 724.54 57.8008 724.636 57.8461 700.816 47.3198ZM934.936 266.347 925.861 295.723 907.805 270.838Z" transform="matrix(-1 0 0 1 2078.5 632.5)"/><path d="M807.525-2.29154 842.672-1.91629 877.597-0.852269 912.084 1.0254 946.192 3.52876 979.866 6.72093 1013.04 10.6018 1045.78 15.1713 1077.89 20.3667 1109.5 26.1885 1140.49 32.637 1170.8 39.7117 1200.47 47.3501 1229.41 55.5538 1257.59 64.384 1285.02 73.7161 1311.58 83.6143 1337.33 94.0765 1362.14 104.98 1386.09 116.449 1409.03 128.359 1430.97 140.712 1451.93 153.571 1471.75 166.873 1490.52 180.619 1508.17 194.811 1524.63 209.387 1539.84 224.346 1553.86 239.693 1566.58 255.428 1577.99 271.501 1585.6 284.368 1581.66 286.703 1574.09 273.917 1574.19 274.076 1562.88 258.139 1562.97 258.253 1550.34 242.628 1550.43 242.734 1536.5 227.484 1536.58 227.571 1521.46 212.696 1521.54 212.778 1505.17 198.278 1505.25 198.348 1487.69 184.223 1487.77 184.286 1469.08 170.599 1469.16 170.653 1449.41 157.403 1449.49 157.453 1428.61 144.641 1428.69 144.685 1406.81 132.372 1406.88 132.409 1384.01 120.534 1384.07 120.567 1360.2 109.129 1360.27 109.161 1335.52 98.2856 1335.57 98.3106 1309.89 87.8731 1309.95 87.8974 1283.45 78.0224 1283.51 78.0446 1256.14 68.7321 1256.19 68.7493 1228.06 59.9368 1228.12 59.9547 1199.25 51.7672 1199.3 51.7818 1169.68 44.1568 1169.73 44.1692 1139.48 37.1067 1139.53 37.1186 1108.6 30.6811 1108.65 30.6913 1077.08 24.8788 1077.13 24.8872 1045.07 19.6997 1045.12 19.7072 1012.43 15.1447 1012.48 15.1511 979.359 11.2761 979.409 11.2814 945.784 8.09394 945.832 8.09802 911.77 5.59802 911.813 5.60078 877.375 3.72578 877.43 3.7281 842.555 2.6656 842.601 2.66654 807.476 2.29154ZM1593.5 274.921 1594.62 305.647 1569.37 288.105Z" transform="matrix(-1 0 0 1 2177.5 625.5)"/><path d="M303.5 1304.45C303.5 1288.46 316.463 1275.5 332.454 1275.5L797.546 1275.5C813.537 1275.5 826.5 1288.46 826.5 1304.45L826.5 1487.55C826.5 1503.54 813.537 1516.5 797.546 1516.5L332.454 1516.5C316.463 1516.5 303.5 1503.54 303.5 1487.55Z" stroke="#000000" stroke-width="4.58333" stroke-miterlimit="8" fill="#FFFFFF" fill-rule="evenodd"/><text font-family="Times New Roman,Times New Roman_MSFontService,sans-serif" font-style="italic" font-weight="400" font-size="64" transform="matrix(1 0 0 1 337.521 1346)">s_rprobe<tspan font-size="64" x="0" y="70">w_rprobeackfirst</tspan><tspan font-size="64" x="0" y="139">w_rprobacklast</tspan></text><path d="M858.5 966.307C858.5 945.979 874.979 929.5 895.307 929.5L1243.69 929.5C1264.02 929.5 1280.5 945.979 1280.5 966.307L1280.5 1334.69C1280.5 1355.02 1264.02 1371.5 1243.69 1371.5L895.307 1371.5C874.979 1371.5 858.5 1355.02 858.5 1334.69Z" stroke="#000000" stroke-width="4.58333" stroke-miterlimit="8" fill="#FFFFFF" fill-rule="evenodd"/><text font-family="Times New Roman,Times New Roman_MSFontService,sans-serif" font-style="italic" font-weight="400" font-size="64" transform="matrix(1 0 0 1 894.562 996)">s_acquire<tspan font-size="64" x="0" y="70">w_grantfirst</tspan><tspan font-size="64" x="0" y="139">w_grantlast</tspan><tspan font-size="64" x="0" y="208">w_grant</tspan><tspan font-size="64" x="0" y="277">s_grantack</tspan><tspan font-size="64" x="0" y="347">s_writeback</tspan></text><path d="M1372.5 587.667C1372.5 577.081 1381.08 568.5 1391.67 568.5L1775.33 568.5C1785.92 568.5 1794.5 577.081 1794.5 587.667L1794.5 664.333C1794.5 674.919 1785.92 683.5 1775.33 683.5L1391.67 683.5C1381.08 683.5 1372.5 674.919 1372.5 664.333Z" stroke="#000000" stroke-width="4.58333" stroke-miterlimit="8" fill="#FFFFFF" fill-rule="evenodd"/><text font-family="Times New Roman,Times New Roman_MSFontService,sans-serif" font-style="italic" font-weight="400" font-size="64" transform="matrix(1 0 0 1 1457.98 649)">s_execute</text><path d="M1585.79 683.5 1585.79 906.983 1581.21 906.983 1581.21 683.5ZM1597.25 902.4 1583.5 929.9 1569.75 902.4Z"/><path d="M566.792 1098.5 566.792 1252.44 562.209 1252.44 562.208 1098.5ZM578.25 1247.86 564.5 1275.36 550.75 1247.86Z"/><path d="M1793.34 673.004 1817.01 683.879 1839.55 695.619 1860.96 708.18 1881.13 721.564 1900.05 735.703 1917.71 750.539 1934.06 766.009 1949.1 782.119 1962.7 798.865 1974.84 816.04 1980.4 824.879 1985.57 833.827 1990.36 842.842 1994.77 852.044 1998.81 861.249 2002.47 870.651 2005.68 880.052 2008.52 889.582 2010.93 899.213 2012.05 905.616 2007.53 906.402 2006.43 900.081 2006.46 900.243 2004.09 890.743 2004.12 890.842 2001.3 881.405 2001.33 881.492 1998.14 872.18 1998.18 872.269 1994.55 862.956 1994.59 863.045 1990.59 853.92 1990.62 853.991 1986.25 844.866 1986.29 844.951 1981.54 836.013 1981.58 836.084 1976.45 827.209 1976.5 827.282 1971 818.532 1971.07 818.636 1959 801.573 1959.1 801.695 1945.6 785.07 1945.7 785.189 1930.76 769.189 1930.86 769.29 1914.61 753.915 1914.71 754.005 1897.15 739.255 1897.25 739.336 1878.44 725.273 1878.55 725.347 1858.48 712.035 1858.59 712.102 1837.28 699.602 1837.38 699.658 1814.94 687.97 1815.04 688.02 1791.43 677.168ZM2022.64 899.301 2013.43 928.635 1995.48 903.667Z"/><text fill="#FF0000" font-family="SimSun,SimSun_MSFontService,sans-serif" font-weight="400" font-size="64" transform="matrix(1 0 0 1 533.909 725)">需要替换？<tspan font-size="64" x="328.242" y="83">需要向下级</tspan><tspan font-family="Times New Roman,Times New Roman_MSFontService,sans-serif" font-size="64" x="312.2" y="152">cache</tspan><tspan font-size="64" x="458.867" y="152">请求？</tspan><tspan font-size="64" x="-258.675" y="451">需要</tspan><tspan font-family="Times New Roman,Times New Roman_MSFontService,sans-serif" font-size="64" x="-130.342" y="451">back</tspan><tspan font-family="Times New Roman,Times New Roman_MSFontService,sans-serif" font-size="64" x="-8.88373" y="451">-</tspan><tspan font-family="Times New Roman,Times New Roman_MSFontService,sans-serif" font-size="64" x="-274.717" y="520">invalidate</tspan><tspan font-size="64" x="-21.4879" y="520">？</tspan><tspan font-size="64" x="1064.94" y="83">需要</tspan><tspan font-family="Times New Roman,Times New Roman_MSFontService,sans-serif" font-size="64" x="1193.27" y="83">probe</tspan><tspan font-size="64" x="1064.94" y="152">其他核？</tspan><tspan font-size="64" x="1449.46" y="84">需要接收</tspan><tspan font-family="Times New Roman,Times New Roman_MSFontService,sans-serif" font-size="64" x="1481.55" y="153">GrantAck</tspan><tspan font-size="64" x="1734.78" y="153">？</tspan><tspan font-size="64" x="1772.7" y="0">需要更新</tspan><tspan font-family="Times New Roman,Times New Roman_MSFontService,sans-serif" font-size="64" x="1868.95" y="69">meta</tspan><tspan font-size="64" x="1993.85" y="69">？</tspan></text><path d="M2923.5 587.667C2923.5 577.081 2932.08 568.5 2942.67 568.5L3284.33 568.5C3294.92 568.5 3303.5 577.081 3303.5 587.667L3303.5 664.333C3303.5 674.918 3294.92 683.5 3284.33 683.5L2942.67 683.5C2932.08 683.5 2923.5 674.918 2923.5 664.333Z" stroke="#000000" stroke-width="4.58333" stroke-miterlimit="8" fill="#FFFFFF" fill-rule="evenodd"/><text font-family="Times New Roman,Times New Roman_MSFontService,sans-serif" font-style="italic" font-weight="400" font-size="64" transform="matrix(1 0 0 1 2987.76 649)">s_execute</text><path d="M2923.5 947.834C2923.5 937.156 2932.16 928.5 2942.83 928.5L3284.17 928.5C3294.84 928.5 3303.5 937.156 3303.5 947.834L3303.5 1025.17C3303.5 1035.84 3294.84 1044.5 3284.17 1044.5L2942.83 1044.5C2932.16 1044.5 2923.5 1035.84 2923.5 1025.17Z" stroke="#000000" stroke-width="4.58333" stroke-miterlimit="8" fill="#FFFFFF" fill-rule="evenodd"/><text font-family="Times New Roman,Times New Roman_MSFontService,sans-serif" font-style="italic" font-weight="400" font-size="64" transform="matrix(1 0 0 1 2957.4 1005)">s_writeback</text><path d="M3607.5 589.667C3607.5 579.082 3616.08 570.5 3626.67 570.5L3967.33 570.5C3977.92 570.5 3986.5 579.082 3986.5 589.667L3986.5 666.333C3986.5 676.918 3977.92 685.5 3967.33 685.5L3626.67 685.5C3616.08 685.5 3607.5 676.918 3607.5 666.333Z" stroke="#000000" stroke-width="4.58333" stroke-miterlimit="8" fill="#FFFFFF" fill-rule="evenodd"/><text font-family="Times New Roman,Times New Roman_MSFontService,sans-serif" font-style="italic" font-weight="400" font-size="64" transform="matrix(1 0 0 1 3705.52 651)">s_flush</text><path d="M3585.5 956.334C3585.5 940.962 3597.96 928.5 3613.33 928.5L3980.67 928.5C3996.04 928.5 4008.5 940.962 4008.5 956.334L4008.5 1067.67C4008.5 1083.04 3996.04 1095.5 3980.67 1095.5L3613.33 1095.5C3597.96 1095.5 3585.5 1083.04 3585.5 1067.67Z" stroke="#000000" stroke-width="4.58333" stroke-miterlimit="8" fill="#FFFFFF" fill-rule="evenodd"/><text font-family="Times New Roman,Times New Roman_MSFontService,sans-serif" font-style="italic" font-weight="400" font-size="64" transform="matrix(1 0 0 1 3619.45 996)">s_release<tspan font-size="64" x="0" y="70">w_releaseack</tspan></text><path d="M3535.5 1301.33C3535.5 1285.41 3548.41 1272.5 3564.33 1272.5L4029.67 1272.5C4045.59 1272.5 4058.5 1285.41 4058.5 1301.33L4058.5 1483.67C4058.5 1499.59 4045.59 1512.5 4029.67 1512.5L3564.33 1512.5C3548.41 1512.5 3535.5 1499.59 3535.5 1483.67Z" stroke="#000000" stroke-width="4.58333" stroke-miterlimit="8" fill="#FFFFFF" fill-rule="evenodd"/><text font-family="Times New Roman,Times New Roman_MSFontService,sans-serif" font-style="italic" font-weight="400" font-size="64" transform="matrix(1 0 0 1 3569.72 1342)">s_rprobe<tspan font-size="64" x="0" y="70">w_rprobeackfirst</tspan><tspan font-size="64" x="0" y="139">w_rprobacklast</tspan></text><path d="M3799.79 1095.5 3799.79 1249.44 3795.21 1249.44 3795.21 1095.5ZM3811.25 1244.86 3797.5 1272.36 3783.75 1244.86Z"/><path d="M3799.79 685.5 3799.79 905.544 3795.21 905.544 3795.21 685.5ZM3811.25 900.961 3797.5 928.461 3783.75 900.961Z"/><path d="M3115.79 683.5 3115.79 905.563 3111.21 905.563 3111.21 683.5ZM3127.25 900.98 3113.5 928.48 3099.75 900.98Z"/><path d="M1183.69 2.96827 1218.24 6.33164 1252.43 10.2765 1286.25 14.8485 1319.63 20.1093 1352.64 25.9342 1385.15 32.4486 1417.21 39.526 1448.72 47.1683 1479.8 55.4377 1510.31 64.2722 1540.26 73.7333 1569.58 83.6946 1598.34 94.1591 1626.48 105.191 1653.93 116.786 1680.76 128.82 1706.91 141.424 1732.3 154.528 1757.01 168.073 1780.91 182.123 1804.06 196.615 1826.4 211.611 1847.92 226.986 1868.57 242.805 1888.42 259.069 1907.32 275.778 1925.29 292.864 1942.38 310.334 1958.48 328.189 1973.64 346.497 1987.55 365.076 1982.04 369.196 1968.19 350.685 1968.29 350.818 1953.23 332.63 1953.32 332.739 1937.32 314.989 1937.42 315.092 1920.42 297.716 1920.51 297.803 1902.63 280.803 1902.72 280.888 1883.91 264.263 1884.01 264.346 1864.26 248.159 1864.35 248.229 1843.78 232.479 1843.88 232.547 1822.44 217.235 1822.52 217.292 1800.27 202.354 1800.36 202.414 1777.3 187.976 1777.38 188.026 1753.57 174.026 1753.66 174.077 1729.03 160.577 1729.11 160.617 1703.8 147.555 1703.88 147.597 1677.82 135.034 1677.91 135.074 1651.16 123.074 1651.23 123.104 1623.85 111.542 1623.93 111.575 1595.87 100.575 1595.95 100.605 1567.26 90.1678 1567.33 90.1923 1538.08 80.2548 1538.15 80.2778 1508.28 70.8403 1508.36 70.8644 1477.92 62.0519 1477.99 62.0719 1446.99 53.8219 1447.06 53.8406 1415.63 46.2156 1415.7 46.2317 1383.7 39.1692 1383.76 39.183 1351.32 32.683 1351.4 32.6977 1318.47 26.8852 1318.53 26.8956 1285.21 21.6456 1285.29 21.6565 1251.54 17.094 1251.61 17.1023 1217.48 13.1648 1217.54 13.1713 1183.02 9.81093ZM1993.41 355.476 1997.98 385.879 1970.91 371.298Z" transform="matrix(-1 0 0 1 3584.5 181.5)"/><path d="M2842.66 259.732 2858.15 266.762 2873.22 274.049 2887.85 281.584 2902.17 289.305 2915.99 297.158 2929.44 305.266 2942.45 313.563 2955.02 322.049 2967.22 330.729 2978.92 339.599 2990.18 348.593 3001.07 357.785 3011.46 367.169 3021.35 376.616 3030.81 386.26 3039.82 396.092 3048.33 405.992 3056.41 416.091 3063.93 426.258 3071 436.607 3077.63 447.032 3083.7 457.595 3089.27 468.22 3094.33 478.979 3098.89 489.869 3102.88 500.765 3106.36 511.786 3109.34 522.88 3111.76 534.147 3113.28 544.846 3106.47 545.813 3104.97 535.233 3105.01 535.471 3102.64 524.409 3102.68 524.579 3099.74 513.641 3099.78 513.786 3096.35 502.911 3096.4 503.057 3092.46 492.307 3092.52 492.452 3088.02 481.702 3088.08 481.839 3083.08 471.214 3083.14 471.345 3077.64 460.845 3077.71 460.963 3071.71 450.526 3071.79 450.658 3065.22 440.345 3065.29 440.438 3058.29 430.188 3058.36 430.293 3050.92 420.231 3051 420.335 3043 410.335 3043.08 410.429 3034.64 400.616 3034.72 400.698 3025.78 390.948 3025.86 391.031 3016.48 381.469 3016.56 381.548 3006.75 372.173 3006.82 372.239 2996.51 362.926 2996.6 363.002 2985.78 353.877 2985.85 353.936 2974.67 344.998 2974.74 345.052 2963.11 336.239 2963.19 336.301 2951.07 327.676 2951.14 327.724 2938.64 319.287 2938.71 319.336 2925.78 311.086 2925.85 311.131 2912.48 303.069 2912.55 303.114 2898.8 295.301 2898.87 295.338 2884.62 287.65 2884.68 287.681 2870.11 280.181 2870.19 280.22 2855.19 272.97 2855.27 273.005 2839.82 265.993ZM3123.07 539.327 3112.28 568.119 3095.72 542.216Z"/><path d="M2846.25 185.935 2890.25 189.639 2933.68 193.957 2976.49 198.901 3018.61 204.534 3059.98 210.73 3100.72 217.552 3140.66 225.001 3179.78 233.014 3218.16 241.59 3255.6 250.731 3292.23 260.436 3327.92 270.706 3362.61 281.415 3396.38 292.689 3429.14 304.466 3460.84 316.683 3491.48 329.405 3521.01 342.568 3549.41 356.236 3576.62 370.283 3602.66 384.774 3627.45 399.647 3650.99 414.965 3673.22 430.605 3694.15 446.695 3713.71 463.107 3731.9 479.909 3748.65 497.038 3763.95 514.479 3771.03 523.331 3777.72 532.225 3784.11 541.283 3788.85 548.867 3783.02 552.511 3778.33 545.01 3778.44 545.171 3772.13 536.233 3772.19 536.316 3765.56 527.503 3765.63 527.585 3758.63 518.835 3758.73 518.954 3743.54 501.642 3743.67 501.778 3727.04 484.778 3727.17 484.9 3709.1 468.212 3709.23 468.321 3689.79 452.008 3689.9 452.1 3669.09 436.1 3669.21 436.187 3647.08 420.624 3647.19 420.694 3623.75 405.444 3623.86 405.51 3599.17 390.698 3599.27 390.754 3573.33 376.316 3573.42 376.367 3546.3 362.367 3546.38 362.41 3518.07 348.785 3518.16 348.827 3488.73 335.702 3488.81 335.737 3458.24 323.05 3458.33 323.083 3426.7 310.895 3426.77 310.922 3394.09 299.172 3394.16 299.198 3360.47 287.948 3360.55 287.972 3325.92 277.285 3325.99 277.303 3290.36 267.053 3290.43 267.073 3253.87 257.385 3253.93 257.402 3216.56 248.277 3216.63 248.292 3178.31 239.73 3178.37 239.743 3139.31 231.743 3139.37 231.754 3099.49 224.317 3099.56 224.328 3058.87 217.515 3058.93 217.525 3017.62 211.337 3017.67 211.345 2975.61 205.72 2975.67 205.727 2932.92 200.79 2932.97 200.796 2889.6 196.483 2889.65 196.488 2845.68 192.785ZM3795.37 539.684 3797.73 570.339 3771.79 553.834Z"/><rect x="2401.5" y="95.5001" width="443" height="175" stroke="#000000" stroke-width="4.58333" stroke-miterlimit="8" fill="#FFFFFF"/><text font-family="SimSun,SimSun_MSFontService,sans-serif" font-weight="400" font-size="73" transform="matrix(1 0 0 1 2475.96 214)">收到请求<tspan fill="#FF0000" font-size="64" x="-1032.13" y="211">是</tspan><tspan fill="#FF0000" font-family="Times New Roman,Times New Roman_MSFontService,sans-serif" font-size="64" x="-967.96" y="211">A</tspan><tspan fill="#FF0000" font-size="64" x="-921.554" y="211">通道？</tspan><tspan fill="#FF0000" font-size="64" x="236.439" y="213">是</tspan><tspan fill="#FF0000" font-family="Times New Roman,Times New Roman_MSFontService,sans-serif" font-size="64" x="300.606" y="213">C</tspan><tspan fill="#FF0000" font-size="64" x="343.575" y="213">通道？</tspan><tspan fill="#FF0000" font-size="64" x="61.4246" y="282">（即</tspan><tspan fill="#FF0000" font-family="Times New Roman,Times New Roman_MSFontService,sans-serif" font-size="64" x="189.758" y="282">Release[Data]</tspan><tspan fill="#FF0000" font-size="64" x="554.133" y="282">）</tspan><tspan fill="#FF0000" font-size="64" x="1231.58" y="212">是</tspan><tspan fill="#FF0000" font-family="Times New Roman,Times New Roman_MSFontService,sans-serif" font-size="64" x="1295.74" y="212">X</tspan><tspan fill="#FF0000" font-size="64" x="1342.15" y="212">通道？</tspan><tspan fill="#FF0000" font-size="64" x="1247.62" y="281">（即</tspan><tspan fill="#FF0000" font-family="Times New Roman,Times New Roman_MSFontService,sans-serif" font-size="64" x="1375.95" y="281">Flush</tspan><tspan fill="#FF0000" font-size="64" x="1518.61" y="281">）</tspan><tspan fill="#FF0000" font-size="64" x="657.967" y="584">需要更新</tspan><tspan fill="#FF0000" font-family="Times New Roman,Times New Roman_MSFontService,sans-serif" font-size="64" x="657.967" y="653">meta</tspan><tspan fill="#FF0000" font-size="64" x="782.863" y="653">？</tspan><tspan fill="#FF0000" font-size="64" x="1342.97" y="619">需要替换？</tspan><tspan fill="#FF0000" font-size="64" x="1342.97" y="958">需要</tspan><tspan fill="#FF0000" font-family="Times New Roman,Times New Roman_MSFontService,sans-serif" font-size="64" x="1471.3" y="958">back</tspan><tspan fill="#FF0000" font-family="Times New Roman,Times New Roman_MSFontService,sans-serif" font-size="64" x="1592.76" y="958">-</tspan><tspan fill="#FF0000" font-family="Times New Roman,Times New Roman_MSFontService,sans-serif" font-size="64" x="1342.97" y="1027">invalidate</tspan><tspan fill="#FF0000" font-size="64" x="1596.2" y="1027">？</tspan></text></g></svg>