<svg width="4182" height="1818" xmlns="http://www.w3.org/2000/svg" xmlns:xlink="http://www.w3.org/1999/xlink" xml:space="preserve" overflow="hidden"><defs><clipPath id="clip0"><rect x="144" y="363" width="4182" height="1818"/></clipPath></defs><g clip-path="url(#clip0)" transform="translate(-144 -363)"><path d="M0.00437475-3.4375 311.989-3.04045 311.98 3.83455-0.00437475 3.4375ZM307.419-13.3588 334.901 0.426214 307.384 14.1412Z" fill="#ED7D31" transform="matrix(1 0 0 -1 3462.5 1587.93)"/><path d="M1.98914e-06-3.4375 600.754-3.43715 600.754 3.43785-1.98914e-06 3.4375ZM596.17-13.7497 623.67 0.000360892 596.17 13.7503Z" transform="matrix(-1 0 0 1 3797.17 2104.5)"/><path d="M3173.5 1938.06 3774.25 1938.06 3774.25 1944.94 3173.5 1944.94ZM3769.67 1927.75 3797.17 1941.5 3769.67 1955.25Z"/><rect x="2705.5" y="1871.5" width="468" height="299" stroke="#000000" stroke-width="4.58333" stroke-miterlimit="8" fill="#FFFFFF"/><text font-family="Times New Roman,Times New Roman_MSFontService,sans-serif" font-weight="400" font-size="73" transform="matrix(1 0 0 1 2798.22 2048)">Directory</text><rect x="506.5" y="365.5" width="1890" height="1401" stroke="#000000" stroke-width="4.58333" stroke-miterlimit="8" fill="none"/><path d="M0-3.4375 184.109-3.4375 184.109 379.631 180.671 376.194 1009.02 376.194 1009.02 383.069 177.234 383.069 177.234 0 180.671 3.4375 0 3.4375ZM1004.44 365.881 1031.94 379.631 1004.44 393.381Z" fill="#ED7D31" transform="matrix(1 0 0 -1 2378.5 2011.13)"/><path d="M1824.62 670.938 1436.42 670.938 1436.42 664.063 1824.62 664.063ZM1441 681.25 1413.5 667.5 1441 653.75Z" fill="#FFC000"/><path d="M3.01756e-06-3.4375 388.2-3.43716 388.2 3.43784-3.01756e-06 3.4375ZM383.616-13.7497 411.116 0.000360892 383.616 13.7503Z" fill="#4472C4" transform="matrix(-1 0 0 1 1824.62 1014.5)"/><path d="M1824.24 585.163 1890.04 585.163 1890.04 749.366 1824.24 749.366Z" fill="#FFF2CC" fill-rule="evenodd"/><path d="M1890.04 585.163 1955.84 585.163 1955.84 749.366 1890.04 749.366Z" fill="#FFF2CC" fill-rule="evenodd"/><path d="M1955.84 585.163 2021.64 585.163 2021.64 749.366 1955.84 749.366Z" fill="#FFF2CC" fill-rule="evenodd"/><path d="M1890.04 582.871 1890.04 751.658" stroke="#000000" stroke-width="4.58333" stroke-linejoin="round" stroke-miterlimit="10" fill="none" fill-rule="evenodd"/><path d="M1955.84 582.871 1955.84 751.658" stroke="#000000" stroke-width="4.58333" stroke-linejoin="round" stroke-miterlimit="10" fill="none" fill-rule="evenodd"/><path d="M2021.64 582.871 2021.64 751.658" stroke="#000000" stroke-width="4.58333" stroke-linejoin="round" stroke-miterlimit="10" fill="none" fill-rule="evenodd"/><path d="M1824.24 582.871 1824.24 751.658" stroke="#000000" stroke-width="4.58333" stroke-linejoin="round" stroke-miterlimit="10" fill="none" fill-rule="evenodd"/><path d="M1821.95 585.163 2087.44 585.163" stroke="#000000" stroke-width="4.58333" stroke-linejoin="round" stroke-miterlimit="10" fill="none" fill-rule="evenodd"/><path d="M1821.95 749.366 2087.44 749.366" stroke="#000000" stroke-width="4.58333" stroke-linejoin="round" stroke-miterlimit="10" fill="none" fill-rule="evenodd"/><path d="M1824.24 931.523 1890.04 931.523 1890.04 1095.73 1824.24 1095.73Z" fill="#DAE3F3" fill-rule="evenodd"/><path d="M1890.04 931.523 1955.84 931.523 1955.84 1095.73 1890.04 1095.73Z" fill="#DAE3F3" fill-rule="evenodd"/><path d="M1955.84 931.523 2021.64 931.523 2021.64 1095.73 1955.84 1095.73Z" fill="#DAE3F3" fill-rule="evenodd"/><path d="M1890.04 929.232 1890.04 1098.02" stroke="#000000" stroke-width="4.58333" stroke-linejoin="round" stroke-miterlimit="10" fill="none" fill-rule="evenodd"/><path d="M1955.84 929.232 1955.84 1098.02" stroke="#000000" stroke-width="4.58333" stroke-linejoin="round" stroke-miterlimit="10" fill="none" fill-rule="evenodd"/><path d="M2021.64 929.232 2021.64 1098.02" stroke="#000000" stroke-width="4.58333" stroke-linejoin="round" stroke-miterlimit="10" fill="none" fill-rule="evenodd"/><path d="M1824.24 929.232 1824.24 1098.02" stroke="#000000" stroke-width="4.58333" stroke-linejoin="round" stroke-miterlimit="10" fill="none" fill-rule="evenodd"/><path d="M1821.95 931.523 2087.44 931.523" stroke="#000000" stroke-width="4.58333" stroke-linejoin="round" stroke-miterlimit="10" fill="none" fill-rule="evenodd"/><path d="M1821.95 1095.73 2087.44 1095.73" stroke="#000000" stroke-width="4.58333" stroke-linejoin="round" stroke-miterlimit="10" fill="none" fill-rule="evenodd"/><path d="M1287.5 1538.06 1772.66 1538.6 1772.65 1545.47 1287.5 1544.94ZM1768.09 1528.28 1795.57 1542.06 1768.05 1555.78Z" fill="#ED7D31"/><rect x="824.5" y="1418.5" width="463" height="246" stroke="#000000" stroke-width="4.58333" stroke-miterlimit="8" fill="#FFFFFF"/><text font-family="Times New Roman,Times New Roman_MSFontService,sans-serif" font-weight="400" font-size="73" transform="matrix(1 0 0 1 916.175 1568)">ReqFilter</text><path d="M3.4375-0.00387506 3.7325 261.685-3.1425 261.693-3.4375 0.00387506ZM14.0398 257.09 0.320833 284.605-13.4602 257.121Z" fill="#ED7D31" transform="matrix(-1 0 0 1 1055.82 1133.5)"/><rect x="698.5" y="548.5" width="715" height="585" stroke="#000000" stroke-width="4.58333" stroke-miterlimit="8" fill="#FFFFFF"/><text font-family="Times New Roman,Times New Roman_MSFontService,sans-serif" font-weight="400" font-size="73" transform="matrix(1 0 0 1 920.407 823)">Prediction<tspan font-size="73" x="-78.1917" y="88">Compute</tspan><tspan font-size="73" x="209.413" y="88">Logic</tspan></text><path d="M0-3.4375 404.197-3.4375 404.197 1867.34 397.322 1867.34 397.322 0 400.759 3.4375 0 3.4375ZM414.509 1862.75 400.759 1890.25 387.009 1862.75Z" fill="#4472C4" transform="matrix(-1.83697e-16 -1 -1 1.83697e-16 3977.75 1415.26)"/><path d="M0-3.4375 750.558-3.4375 750.558 2056.36 743.683 2056.36 743.683 0 747.12 3.4375 0 3.4375ZM760.87 2051.78 747.12 2079.28 733.37 2051.78Z" fill="#FFC000" transform="matrix(-1.83697e-16 -1 -1 1.83697e-16 4166.78 1414.62)"/><text fill="#F2B802" font-family="DengXian,DengXian_MSFontService,sans-serif" font-weight="700" font-size="83" transform="matrix(1 0 0 1 2593.58 620)">①<tspan fill="#000000" font-family="Times New Roman,Times New Roman_MSFontService,sans-serif" font-weight="400" font-size="83" x="103.125" y="0">Miss</tspan><tspan fill="#000000" font-family="Times New Roman,Times New Roman_MSFontService,sans-serif" font-weight="400" font-size="83" x="284.167" y="0">/</tspan><tspan fill="#000000" font-family="Times New Roman,Times New Roman_MSFontService,sans-serif" font-weight="400" font-size="83" x="327.708" y="0">prefetch</tspan><tspan fill="#000000" font-family="Times New Roman,Times New Roman_MSFontService,sans-serif" font-weight="400" font-size="83" x="618.75" y="0">hit</tspan><tspan fill="#ED7D31" font-size="83" x="-1986.38" y="634">②</tspan><tspan fill="#000000" font-family="Times New Roman,Times New Roman_MSFontService,sans-serif" font-weight="400" font-size="83" x="-1883.26" y="634">Predicted</tspan><tspan fill="#000000" font-family="Times New Roman,Times New Roman_MSFontService,sans-serif" font-weight="400" font-size="83" x="-1887.84" y="734">addresses</tspan><tspan fill="#ED7D31" font-size="83" x="-1274.55" y="784">③</tspan><tspan fill="#000000" font-family="Times New Roman,Times New Roman_MSFontService,sans-serif" font-weight="400" font-size="83" x="-1172.91" y="784">Valid</tspan><tspan fill="#000000" font-family="Times New Roman,Times New Roman_MSFontService,sans-serif" font-weight="400" font-size="83" x="-978.097" y="784">addresses</tspan></text><path d="M2321.5 1538.06 3387.73 1538.09 3387.73 1544.97 2321.5 1544.94ZM3383.15 1527.78 3410.65 1541.53 3383.15 1555.28Z" fill="#ED7D31"/><text fill="#ED7D31" font-family="DengXian,DengXian_MSFontService,sans-serif" font-weight="700" font-size="83" transform="matrix(1 0 0 1 2623.39 1489)">④<tspan fill="#000000" font-family="Times New Roman,Times New Roman_MSFontService,sans-serif" font-weight="400" font-size="83" x="103.125" y="0">Prefetch</tspan><tspan fill="#000000" font-family="Times New Roman,Times New Roman_MSFontService,sans-serif" font-weight="400" font-size="83" x="398.75" y="0">request</tspan><tspan fill="#000000" font-size="83" x="604.429" y="383">⑤</tspan><tspan fill="#000000" font-family="Times New Roman,Times New Roman_MSFontService,sans-serif" font-weight="400" font-size="83" x="707.554" y="383">Meta</tspan><tspan fill="#000000" font-family="Times New Roman,Times New Roman_MSFontService,sans-serif" font-weight="400" font-size="83" x="897.762" y="383">update</tspan><tspan fill="#4472C4" font-size="83" x="-20.6367" y="-526">⑥</tspan><tspan fill="#000000" font-family="Times New Roman,Times New Roman_MSFontService,sans-serif" font-weight="400" font-size="83" x="82.4883" y="-526">Prefetch</tspan><tspan fill="#000000" font-family="Times New Roman,Times New Roman_MSFontService,sans-serif" font-weight="400" font-size="83" x="378.113" y="-526">response</tspan><tspan fill="#000000" font-family="Times New Roman,Times New Roman_MSFontService,sans-serif" font-weight="400" font-size="64" x="497.072" y="479">R</tspan><tspan fill="#000000" font-family="Times New Roman,Times New Roman_MSFontService,sans-serif" font-weight="400" font-size="64" x="484.417" y="638">W</tspan><tspan fill="#000000" font-family="Times New Roman,Times New Roman_MSFontService,sans-serif" font-weight="400" font-size="73" x="-842.708" y="-658">Train</tspan><tspan fill="#000000" font-family="Times New Roman,Times New Roman_MSFontService,sans-serif" font-weight="400" font-size="73" x="-667.694" y="-658">queue</tspan><tspan fill="#000000" font-family="Times New Roman,Times New Roman_MSFontService,sans-serif" font-weight="400" font-size="73" x="-837.701" y="-304">Resp</tspan><tspan fill="#000000" font-family="Times New Roman,Times New Roman_MSFontService,sans-serif" font-weight="400" font-size="73" x="-672.701" y="-304">queue</tspan><tspan fill="#000000" font-family="Times New Roman,Times New Roman_MSFontService,sans-serif" font-weight="400" font-size="83" x="-2047.31" y="-1005">Prefetcher</tspan></text><path d="M1794.72 1459.17 1860.52 1459.17 1860.52 1623.38 1794.72 1623.38Z" fill="#FFFFFF" fill-rule="evenodd"/><path d="M1860.52 1459.17 1926.32 1459.17 1926.32 1623.38 1860.52 1623.38Z" fill="#FBE5D6" fill-rule="evenodd"/><path d="M1926.32 1459.17 1992.12 1459.17 1992.12 1623.38 1926.32 1623.38Z" fill="#FBE5D6" fill-rule="evenodd"/><path d="M1992.12 1459.17 2057.92 1459.17 2057.92 1623.38 1992.12 1623.38Z" fill="#FBE5D6" fill-rule="evenodd"/><path d="M2057.92 1459.17 2123.71 1459.17 2123.71 1623.38 2057.92 1623.38Z" fill="#FBE5D6" fill-rule="evenodd"/><path d="M2123.71 1459.17 2189.51 1459.17 2189.51 1623.38 2123.71 1623.38Z" fill="#FBE5D6" fill-rule="evenodd"/><path d="M2189.51 1459.17 2255.31 1459.17 2255.31 1623.38 2189.51 1623.38Z" fill="#FBE5D6" fill-rule="evenodd"/><path d="M2255.31 1459.17 2321.11 1459.17 2321.11 1623.38 2255.31 1623.38Z" fill="#FBE5D6" fill-rule="evenodd"/><path d="M1860.52 1456.88 1860.52 1625.67" stroke="#000000" stroke-width="4.58333" stroke-linejoin="round" stroke-miterlimit="10" fill="none" fill-rule="evenodd"/><path d="M1926.32 1456.88 1926.32 1625.67" stroke="#000000" stroke-width="4.58333" stroke-linejoin="round" stroke-miterlimit="10" fill="none" fill-rule="evenodd"/><path d="M1992.12 1456.88 1992.12 1625.67" stroke="#000000" stroke-width="4.58333" stroke-linejoin="round" stroke-miterlimit="10" fill="none" fill-rule="evenodd"/><path d="M2057.92 1456.88 2057.92 1625.67" stroke="#000000" stroke-width="4.58333" stroke-linejoin="round" stroke-miterlimit="10" fill="none" fill-rule="evenodd"/><path d="M2123.71 1456.88 2123.71 1625.67" stroke="#000000" stroke-width="4.58333" stroke-linejoin="round" stroke-miterlimit="10" fill="none" fill-rule="evenodd"/><path d="M2189.51 1456.88 2189.51 1625.67" stroke="#000000" stroke-width="4.58333" stroke-linejoin="round" stroke-miterlimit="10" fill="none" fill-rule="evenodd"/><path d="M2255.31 1456.88 2255.31 1625.67" stroke="#000000" stroke-width="4.58333" stroke-linejoin="round" stroke-miterlimit="10" fill="none" fill-rule="evenodd"/><path d="M2321.11 1456.88 2321.11 1625.67" stroke="#000000" stroke-width="4.58333" stroke-linejoin="round" stroke-miterlimit="10" fill="none" fill-rule="evenodd"/><path d="M1794.72 1459.17 2323.41 1459.17" stroke="#000000" stroke-width="4.58333" stroke-linejoin="round" stroke-miterlimit="10" fill="none" fill-rule="evenodd"/><path d="M1794.72 1623.38 2323.41 1623.38" stroke="#000000" stroke-width="4.58333" stroke-linejoin="round" stroke-miterlimit="10" fill="none" fill-rule="evenodd"/><text font-family="Times New Roman,Times New Roman_MSFontService,sans-serif" font-weight="400" font-size="73" transform="matrix(1 0 0 1 1903.12 1704)">Req<tspan font-size="73" x="136.354" y="0">queue</tspan></text><rect x="1986.5" y="1927.5" width="392" height="166" stroke="#000000" stroke-width="4.58333" stroke-miterlimit="8" fill="#DAE3F3"/><text font-family="Times New Roman,Times New Roman_MSFontService,sans-serif" font-weight="400" font-size="64" transform="matrix(1 0 0 1 2105.36 2034)">sinkA</text><rect x="3798.5" y="1414.5" width="525" height="750" stroke="#000000" stroke-width="4.58333" stroke-miterlimit="8" fill="none"/><text font-family="Times New Roman,Times New Roman_MSFontService,sans-serif" font-weight="400" font-size="73" transform="matrix(1 0 0 1 3942.36 1816)">MSHRs</text><path d="M3410.5 1499.5 3462.5 1533.62 3462.5 1642.37 3410.5 1676.5Z" stroke="#000000" stroke-width="4.58333" stroke-miterlimit="8" fill="none" fill-rule="evenodd"/><path d="M0-3.4375 146.135-3.4375 146.135 469.417 142.697 465.979 262.478 465.979 262.478 472.854 139.26 472.854 139.26 0 142.697 3.4375 0 3.4375ZM257.895 455.667 285.395 469.417 257.895 483.167Z" fill="#ED7D31" transform="matrix(1 0 0 -1 538.5 2010.92)"/><rect x="146.5" y="1927.5" width="392" height="166" stroke="#000000" stroke-width="4.58333" stroke-miterlimit="8" fill="#DAE3F3"/><text font-family="Times New Roman,Times New Roman_MSFontService,sans-serif" font-weight="400" font-size="64" transform="matrix(1 0 0 1 260.232 2034)">SinkX<tspan font-size="73" x="460.029" y="-160">Debug</tspan><tspan font-size="73" x="460.029" y="-72">address</tspan></text></g></svg>