<svg width="4267" height="2247" xmlns="http://www.w3.org/2000/svg" xmlns:xlink="http://www.w3.org/1999/xlink" xml:space="preserve" overflow="hidden"><defs><clipPath id="clip0"><rect x="50" y="142" width="4267" height="2247"/></clipPath></defs><g clip-path="url(#clip0)" transform="translate(-50 -142)"><path d="M3274.58 1172.79 3192.64 1172.79 3194.93 1170.5 3194.93 2121.79 1225.54 2121.79 1225.54 1693.14 1227.83 1695.43 1130.42 1695.43 1130.42 1690.85 1230.12 1690.85 1230.12 2119.5 1227.83 2117.21 3192.64 2117.21 3190.35 2119.5 3190.35 1168.21 3274.58 1168.21ZM3270 1156.75 3297.5 1170.5 3270 1184.25ZM1135 1706.89 1107.5 1693.14 1135 1679.39Z"/><path d="M3272.58 937.792 3145.97 937.792 3148.26 935.5 3148.26 2077.79 1271.93 2077.79 1271.93 1649.07 1274.22 1651.37 1130.42 1651.37 1130.42 1646.78 1276.51 1646.78 1276.51 2075.5 1274.22 2073.21 3145.97 2073.21 3143.67 2075.5 3143.67 933.208 3272.58 933.208ZM3268 921.75 3295.5 935.5 3268 949.25ZM1135 1662.82 1107.5 1649.07 1135 1635.32Z"/><path d="M2941.21 788.5 2941.21 652.536 3220.46 652.536 3218.17 654.828 3218.17 445.208 3272.58 445.208 3272.58 449.792 3220.46 449.792 3222.75 447.5 3222.75 657.12 2943.5 657.12 2945.79 654.828 2945.79 788.5ZM3268 433.75 3295.5 447.5 3268 461.25Z" fill="#FFC000"/><path d="M22.9167-2.29167 65.4366-2.29167 65.4366 161.102 24.1866 161.102 24.1866 156.519 63.145 156.519 60.8533 158.811 60.8533 0 63.145 2.29167 22.9167 2.29167ZM27.5 13.75 0 0 27.5-13.75ZM28.77 172.561 1.26998 158.811 28.77 145.061Z" transform="matrix(1 0 0 -1 1104.5 1478.31)"/><path d="M22.9167-2.29167 117.923-2.29167 117.923 770.839 23.7294 770.839 23.7294 766.256 115.631 766.256 113.339 768.547 113.339 0 115.631 2.29167 22.9167 2.29167ZM27.5 13.75 0 0 27.5-13.75ZM28.3127 782.297 0.81273 768.547 28.3127 754.797Z" transform="matrix(1 0 0 -1 1104.5 1521.05)"/><rect x="3295.5" y="604.5" width="363" height="114" stroke="#7F7F7F" stroke-width="4.58333" stroke-miterlimit="8" stroke-dasharray="18.3333 13.75" fill="#E7E6E6"/><text fill="#7F7F7F" font-family="Times New Roman,Times New Roman_MSFontService,sans-serif" font-weight="400" font-size="64" transform="matrix(1 0 0 1 3401.33 685)">sinkB</text><rect x="3295.5" y="1289.5" width="363" height="115" stroke="#000000" stroke-width="4.58333" stroke-miterlimit="8" fill="#DAE3F3"/><text font-family="Times New Roman,Times New Roman_MSFontService,sans-serif" font-weight="400" font-size="64" transform="matrix(1 0 0 1 3372.97 1370)">sourceE</text><rect x="3295.5" y="1957.5" width="363" height="115" stroke="#000000" stroke-width="4.58333" stroke-miterlimit="8" fill="#DAE3F3"/><text font-family="Times New Roman,Times New Roman_MSFontService,sans-serif" font-weight="400" font-size="64" transform="matrix(1 0 0 1 3369.25 2038)">sourceX</text><rect x="3295.5" y="390.5" width="363" height="114" stroke="#000000" stroke-width="4.58333" stroke-miterlimit="8" fill="#DAE3F3"/><text font-family="Times New Roman,Times New Roman_MSFontService,sans-serif" font-weight="400" font-size="64" transform="matrix(1 0 0 1 3369.25 470)">sourceA</text><rect x="742.5" y="209.5" width="2916" height="1959" stroke="#000000" stroke-width="4.58333" stroke-miterlimit="8" fill="none"/><text font-family="Times New Roman,Times New Roman_MSFontService,sans-serif" font-weight="400" font-size="73" transform="matrix(1 0 0 1 840.146 333)">Scheduler<tspan font-size="73" x="2993.91" y="-92">Memory</tspan><tspan font-size="73" x="3265.48" y="-92">Bus</tspan></text><path d="M110.5 361.692C110.5 350.54 119.54 341.5 130.692 341.5L563.308 341.5C574.46 341.5 583.5 350.54 583.5 361.692L583.5 847.308C583.5 858.46 574.46 867.5 563.308 867.5L130.692 867.5C119.54 867.5 110.5 858.46 110.5 847.308Z" stroke="#000000" stroke-width="4.58333" stroke-miterlimit="8" stroke-dasharray="18.3333 13.75" fill="none" fill-rule="evenodd"/><text font-family="Times New Roman,Times New Roman_MSFontService,sans-serif" font-weight="400" font-size="64" transform="matrix(1 0 0 1 148.36 416)">PutFullData<tspan font-size="64" x="0" y="70">PutPartialData</tspan><tspan font-size="64" x="0" y="139">ArithmeticData</tspan><tspan font-size="64" x="0" y="208">LogicalData</tspan><tspan font-size="64" x="0" y="277">Get</tspan><tspan font-size="64" x="0" y="347">Intent</tspan><tspan font-size="64" x="0" y="416">Acquire(Data)</tspan></text><path d="M182.5 908.925C182.5 902.615 187.615 897.5 193.925 897.5L570.075 897.5C576.385 897.5 581.5 902.615 581.5 908.925L581.5 1006.08C581.5 1012.38 576.385 1017.5 570.075 1017.5L193.925 1017.5C187.615 1017.5 182.5 1012.38 182.5 1006.08Z" stroke="#000000" stroke-width="4.58333" stroke-miterlimit="8" stroke-dasharray="18.3333 13.75" fill="none" fill-rule="evenodd"/><text font-family="Times New Roman,Times New Roman_MSFontService,sans-serif" font-weight="400" font-size="64" transform="matrix(1 0 0 1 217.706 980)">Probe</text><path d="M73.5001 1167.97C73.5001 1158.87 80.8746 1151.5 89.9716 1151.5L563.029 1151.5C572.125 1151.5 579.5 1158.87 579.5 1167.97L579.5 1308.03C579.5 1317.13 572.125 1324.5 563.029 1324.5L89.9716 1324.5C80.8746 1324.5 73.5001 1317.13 73.5001 1308.03Z" stroke="#000000" stroke-width="4.58333" stroke-miterlimit="8" stroke-dasharray="18.3333 13.75" fill="none" fill-rule="evenodd"/><text font-family="Times New Roman,Times New Roman_MSFontService,sans-serif" font-weight="400" font-size="64" transform="matrix(1 0 0 1 110.179 1226)">ProbeAck(Data)<tspan font-size="64" x="0" y="70">Release(Data)</tspan></text><path d="M52.5001 1461.54C52.5001 1445.5 65.5014 1432.5 81.5393 1432.5L550.461 1432.5C566.499 1432.5 579.5 1445.5 579.5 1461.54L579.5 1708.46C579.5 1724.5 566.499 1737.5 550.461 1737.5L81.5393 1737.5C65.5014 1737.5 52.5001 1724.5 52.5001 1708.46Z" stroke="#000000" stroke-width="4.58333" stroke-miterlimit="8" stroke-dasharray="18.3333 13.75" fill="none" fill-rule="evenodd"/><text font-family="Times New Roman,Times New Roman_MSFontService,sans-serif" font-weight="400" font-size="64" transform="matrix(1 0 0 1 93.417 1503)">AccessAck(Data)<tspan font-size="64" x="0" y="70">Grant(Data)</tspan><tspan font-size="64" x="0" y="139">HintAck</tspan><tspan font-size="64" x="0" y="208">ReleaseAck</tspan></text><path d="M182.5 1836.93C182.5 1830.62 187.615 1825.5 193.925 1825.5L570.075 1825.5C576.385 1825.5 581.5 1830.62 581.5 1836.93L581.5 1934.08C581.5 1940.38 576.385 1945.5 570.075 1945.5L193.925 1945.5C187.615 1945.5 182.5 1940.38 182.5 1934.08Z" stroke="#000000" stroke-width="4.58333" stroke-miterlimit="8" stroke-dasharray="18.3333 13.75" fill="none" fill-rule="evenodd"/><text font-family="Times New Roman,Times New Roman_MSFontService,sans-serif" font-weight="400" font-size="64" transform="matrix(1 0 0 1 217.706 1908)">GrantAck</text><path d="M3817.5 1794.92C3817.5 1788.61 3822.61 1783.5 3828.92 1783.5L4205.07 1783.5C4211.38 1783.5 4216.5 1788.61 4216.5 1794.92L4216.5 1892.07C4216.5 1898.38 4211.38 1903.5 4205.07 1903.5L3828.92 1903.5C3822.61 1903.5 3817.5 1898.38 3817.5 1892.07Z" stroke="#000000" stroke-width="4.58333" stroke-miterlimit="8" stroke-dasharray="18.3333 13.75" fill="none" fill-rule="evenodd"/><text font-family="Times New Roman,Times New Roman_MSFontService,sans-serif" font-weight="400" font-size="64" transform="matrix(1 0 0 1 3852.45 1867)">FlushReq</text><path d="M581.5 1882.06 714.898 1882.06 714.898 1888.94 581.5 1888.94ZM714.898 1885.5 696.565 1862.58 742.398 1885.5 696.565 1908.42Z"/><path d="M0.0552737-3.43706 131.599-1.3216 131.489 5.55251-0.0552737 3.43706ZM131.544 2.11545 113.582-21.093 159.041 2.55764 112.845 24.7344Z" transform="matrix(-1 0 0 1 3817.54 1843.5)"/><path d="M742.148 1588.94 607 1588.94 607 1582.06 742.148 1582.06ZM607 1585.5 625.333 1608.42 579.5 1585.5 625.333 1562.58Z"/><path d="M0.0171243-3.43746 133.416-2.77291 133.382 4.10201-0.0171243 3.43746ZM133.399 0.664548 115.18-22.3432 160.898 0.801542 114.952 23.4896Z" transform="matrix(-1 0 0 1 742.399 956.5)"/><path d="M3817.5 398.925C3817.5 392.615 3822.61 387.5 3828.92 387.5L4279.07 387.5C4285.38 387.5 4290.5 392.615 4290.5 398.925L4290.5 496.075C4290.5 502.385 4285.38 507.5 4279.07 507.5L3828.92 507.5C3822.61 507.5 3817.5 502.385 3817.5 496.075Z" stroke="#000000" stroke-width="4.58333" stroke-miterlimit="8" stroke-dasharray="18.3333 13.75" fill="none" fill-rule="evenodd"/><text font-family="Times New Roman,Times New Roman_MSFontService,sans-serif" font-weight="400" font-size="64" transform="matrix(1 0 0 1 3852.45 470)">Acquire(Data)</text><path d="M3817.5 836.925C3817.5 830.615 3822.61 825.5 3828.92 825.5L4279.07 825.5C4285.38 825.5 4290.5 830.615 4290.5 836.925L4290.5 934.075C4290.5 940.385 4285.38 945.5 4279.07 945.5L3828.92 945.5C3822.61 945.5 3817.5 940.385 3817.5 934.075Z" stroke="#000000" stroke-width="4.58333" stroke-miterlimit="8" stroke-dasharray="18.3333 13.75" fill="none" fill-rule="evenodd"/><text font-family="Times New Roman,Times New Roman_MSFontService,sans-serif" font-weight="400" font-size="64" transform="matrix(1 0 0 1 3852.45 909)">Release(Data)</text><path d="M3658.5 444.063 3789.53 444.063 3789.53 450.938 3658.5 450.938ZM3789.53 447.5 3771.19 424.584 3817.03 447.5 3771.19 470.417Z"/><path d="M3658.5 882.063 3789.53 882.134 3789.52 889.009 3658.5 888.938ZM3789.53 885.571 3771.2 862.645 3817.03 885.586 3771.18 908.478Z"/><path d="M3817.5 1051.97C3817.5 1042.87 3824.87 1035.5 3833.97 1035.5L4274.03 1035.5C4283.13 1035.5 4290.5 1042.87 4290.5 1051.97L4290.5 1192.03C4290.5 1201.13 4283.13 1208.5 4274.03 1208.5L3833.97 1208.5C3824.87 1208.5 3817.5 1201.13 3817.5 1192.03Z" stroke="#000000" stroke-width="4.58333" stroke-miterlimit="8" stroke-dasharray="18.3333 13.75" fill="none" fill-rule="evenodd"/><text font-family="Times New Roman,Times New Roman_MSFontService,sans-serif" font-weight="400" font-size="64" transform="matrix(1 0 0 1 3853.92 1110)">Grant(Data)<tspan font-size="64" x="0" y="70">ReleaseAck</tspan></text><path d="M3817.01 1125.44 3685.99 1125.02 3686.01 1118.15 3817.04 1118.56ZM3686 1121.59 3704.26 1144.56 3658.5 1121.5 3704.41 1098.73Z"/><path d="M3817.5 1297.93C3817.5 1291.62 3822.61 1286.5 3828.92 1286.5L4205.07 1286.5C4211.38 1286.5 4216.5 1291.62 4216.5 1297.93L4216.5 1395.08C4216.5 1401.38 4211.38 1406.5 4205.07 1406.5L3828.92 1406.5C3822.61 1406.5 3817.5 1401.38 3817.5 1395.08Z" stroke="#000000" stroke-width="4.58333" stroke-miterlimit="8" stroke-dasharray="18.3333 13.75" fill="none" fill-rule="evenodd"/><text font-family="Times New Roman,Times New Roman_MSFontService,sans-serif" font-weight="400" font-size="64" transform="matrix(1 0 0 1 3852.45 1370)">GrantAck</text><path d="M3658.5 1343.06 3789.53 1343.06 3789.53 1349.94 3658.5 1349.94ZM3789.53 1346.5 3771.19 1323.58 3817.03 1346.5 3771.19 1369.42Z"/><path d="M3817.5 1966.02C3817.5 1959.66 3822.66 1954.5 3829.02 1954.5L4204.98 1954.5C4211.34 1954.5 4216.5 1959.66 4216.5 1966.02L4216.5 2063.98C4216.5 2070.34 4211.34 2075.5 4204.98 2075.5L3829.02 2075.5C3822.66 2075.5 3817.5 2070.34 3817.5 2063.98Z" stroke="#000000" stroke-width="4.58333" stroke-miterlimit="8" stroke-dasharray="18.3333 13.75" fill="none" fill-rule="evenodd"/><text font-family="Times New Roman,Times New Roman_MSFontService,sans-serif" font-weight="400" font-size="64" transform="matrix(1 0 0 1 3852.45 2038)">FlushResp</text><path d="M3658.5 2012.06 3789.53 2012.06 3789.53 2018.94 3658.5 2018.94ZM3789.53 2015.5 3771.19 1992.58 3817.03 2015.5 3771.19 2038.42Z"/><path d="M583.5 601.063 666.199 601.063 666.199 727.886 662.762 724.449 714.524 724.449 714.524 731.324 659.324 731.324 659.324 604.5 662.762 607.938 583.5 607.938ZM714.524 727.886 696.191 704.969 742.024 727.886 696.191 750.803Z"/><text font-family="Times New Roman,Times New Roman_MSFontService,sans-serif" font-weight="400" font-size="73" transform="matrix(1 0 0 1 178.037 235)">System<tspan font-size="73" x="234.896" y="0">Bus</tspan></text><path d="M1104.5 700.208 1470.32 700.208 1470.32 1224.8 1468.03 1222.51 1520.51 1222.51 1520.51 1227.09 1465.73 1227.09 1465.73 702.5 1468.03 704.792 1104.5 704.792ZM1515.93 1211.05 1543.43 1224.8 1515.93 1238.55Z" fill="#ED7D31"/><path d="M1104.5 1208.21 1406.38 1208.21 1406.38 1282.96 1404.09 1280.67 1519.95 1280.67 1519.95 1285.25 1401.8 1285.25 1401.8 1210.5 1404.09 1212.79 1104.5 1212.79ZM1515.37 1269.21 1542.87 1282.96 1515.37 1296.71Z" fill="#ED7D31"/><path d="M0.00360351-2.29166 170.565-2.02347 170.557 2.55986-0.00360351 2.29166ZM165.999-13.489 193.478 0.304232 165.956 14.011Z" fill="#ED7D31" transform="matrix(1 0 0 -1 1594.5 1282.8)"/><rect x="3294.5" y="1789.5" width="364" height="114" stroke="#000000" stroke-width="4.58333" stroke-miterlimit="8" fill="#DAE3F3"/><text font-family="Times New Roman,Times New Roman_MSFontService,sans-serif" font-weight="400" font-size="64" transform="matrix(1 0 0 1 3399.1 1869)">sinkX</text><path d="M0.0282732-3.43738 135.179-2.32574 135.122 4.54903-0.0282732 3.43738ZM135.151 1.11164 117.007-21.955 162.65 1.33783 116.63 23.8767Z" transform="matrix(1 0 0 -1 579.5 1237.84)"/><path d="M0-2.29167 509.764-2.29167 509.764 199.169 507.472 196.878 1219.61 196.878 1219.61 201.461 505.181 201.461 505.181 0 507.472 2.29167 0 2.29167ZM1215.03 185.419 1242.53 199.169 1215.03 212.919Z" fill="#4472C4" transform="matrix(1 0 0 -1 1104.5 1154.67)"/><path d="M0-2.29167 176.741-2.29167 176.741 820.387 174.449 818.095 454.907 818.095 454.907 822.678 172.157 822.678 172.157 0 174.449 2.29167 0 2.29167ZM450.323 806.637 477.823 820.387 450.323 834.137Z" fill="#00B050" transform="matrix(1 0 0 -1 1105.5 1266.89)"/><path d="M0 2.29167-67.4991 2.29167-65.2075 0-65.2075 892.373-67.4991 890.081 193.068 890.081 193.068 1351.72 188.484 1351.72 188.484 892.373 190.776 894.664-69.7908 894.664-69.7908-2.29167 0-2.29167ZM204.526 1347.14 190.776 1374.64 177.026 1347.14Z" fill="#FFC000" transform="matrix(-6.12323e-17 -1 -1 6.12323e-17 2480.14 1754.28)"/><text font-family="Times New Roman,Times New Roman_MSFontService,sans-serif" font-weight="400" font-size="73" transform="matrix(1 0 0 1 3848.38 2274)">Control<tspan font-size="73" x="242.917" y="0">Bus</tspan></text><path d="M22.9166-2.29167 239.341-2.29167 239.341 1036.94 237.049 1034.64 455.111 1034.64 455.111 1039.23 234.758 1039.23 234.758 0 237.049 2.29167 22.9166 2.29167ZM27.5 13.75 0 0 27.5-13.75ZM450.528 1023.19 478.028 1036.94 450.528 1050.69Z" fill="#00B050" transform="matrix(1 0 0 -1 1105.5 1606.44)"/><path d="M0-2.29167 260.814-2.29167 260.814 328.542 256.231 328.542 256.231 0 258.522 2.29167 0 2.29167ZM272.272 323.958 258.522 351.458 244.772 323.958Z" fill="#FFC000" transform="matrix(1.83697e-16 1 1 -1.83697e-16 2943.5 1756.5)"/><path d="M1542.5 1194.5 1594.5 1228.63 1594.5 1337.37 1542.5 1371.5Z" stroke="#000000" stroke-width="4.58333" stroke-miterlimit="8" fill="none" fill-rule="evenodd"/><path d="M3747.5 1592.5 4314.17 1592.5" stroke="#000000" stroke-width="4.58333" stroke-miterlimit="8" stroke-dasharray="18.3333 13.75" fill="none" fill-rule="evenodd"/><path d="M3038.5 883.208 3272.39 883.209 3272.39 887.792 3038.5 887.792ZM3267.81 871.75 3295.31 885.5 3267.81 899.25Z" fill="#FFC000"/><path d="M3.21967e-06-2.29167 233.956-2.29134 233.956 2.292-3.21967e-06 2.29167ZM229.373-13.7497 256.873 0.000360892 229.373 13.7503Z" fill="#4472C4" transform="matrix(-1 0 0 1 3295.37 1121.5)"/><path d="M3038.5 1344.21 3272.39 1344.21 3272.39 1348.79 3038.5 1348.79ZM3267.81 1332.75 3295.31 1346.5 3267.81 1360.25Z" fill="#FFC000"/><path d="M5.59996e-06-2.29167 124.771-2.29136 124.771 2.29197-5.59996e-06 2.29167ZM120.188-13.7497 147.688 0.000360892 120.188 13.7503Z" fill="#FFC000" transform="matrix(-1 0 0 1 2344.19 1633.5)"/><path d="M2.29167-8.57949e-06 2.29194 73.4813-2.29139 73.4813-2.29167 8.57949e-06ZM13.7503 68.8979 0.000360892 96.398-13.7497 68.898Z" fill="#ED7D31" transform="matrix(1 0 0 -1 1804.5 1265.9)"/><path d="M2080.79 1169.5 2080.79 1243.66 2076.21 1243.66 2076.21 1169.5ZM2092.25 1239.08 2078.5 1266.58 2064.75 1239.08Z" fill="#ED7D31"/><path d="M2196.5 1475.21 2321.27 1475.21 2321.27 1479.79 2196.5 1479.79ZM2316.69 1463.75 2344.19 1477.5 2316.69 1491.25Z"/><path d="M1820.51 1280.21 2039.21 1280.83 2039.2 1285.41 1820.49 1284.79ZM2034.66 1269.35 2062.12 1283.18 2034.58 1296.85Z" fill="#ED7D31"/><path d="M3.2841e-06-2.29167 228.917-2.29134 228.917 2.29199-3.2841e-06 2.29167ZM224.333-13.7497 251.833 0.000360892 224.333 13.7503Z" fill="#ED7D31" transform="matrix(1 0 0 -1 2094.5 1282.5)"/><path d="M2062.5 1283C2062.5 1273.89 2069.66 1266.5 2078.5 1266.5 2087.34 1266.5 2094.5 1273.89 2094.5 1283 2094.5 1292.11 2087.34 1299.5 2078.5 1299.5 2069.66 1299.5 2062.5 1292.11 2062.5 1283Z" stroke="#000000" stroke-width="4.58333" stroke-miterlimit="8" fill="#FFFFFF" fill-rule="evenodd"/><path d="M1788.5 1282.5C1788.5 1273.66 1795.66 1266.5 1804.5 1266.5 1813.34 1266.5 1820.5 1273.66 1820.5 1282.5 1820.5 1291.34 1813.34 1298.5 1804.5 1298.5 1795.66 1298.5 1788.5 1291.34 1788.5 1282.5Z" stroke="#000000" stroke-width="4.58333" stroke-miterlimit="8" fill="#FFFFFF" fill-rule="evenodd"/><text fill="#ED7D31" font-family="Times New Roman,Times New Roman_MSFontService,sans-serif" font-weight="400" font-size="64" transform="matrix(1 0 0 1 1664.49 1244)">push</text><rect x="1754.5" y="1014.5" width="367" height="156" stroke="#000000" stroke-width="4.58333" stroke-miterlimit="8" fill="#FFFFFF"/><text font-family="Times New Roman,Times New Roman_MSFontService,sans-serif" font-weight="400" font-size="64" transform="matrix(1 0 0 1 1804.5 1116)">ListBuffer<tspan fill="#ED7D31" font-size="64" x="297.774" y="127">pop</tspan><tspan fill="#ED7D31" font-size="64" x="52.6477" y="226">bypass</tspan></text><rect x="742.5" y="1458.5" width="363" height="254" stroke="#000000" stroke-width="4.58333" stroke-miterlimit="8" fill="#DAE3F3"/><text font-family="Times New Roman,Times New Roman_MSFontService,sans-serif" font-weight="400" font-size="64" transform="matrix(1 0 0 1 816.481 1608)">sourceD</text><rect x="742.5" y="1128.5" width="363" height="217" stroke="#000000" stroke-width="4.58333" stroke-miterlimit="8" fill="#DAE3F3"/><text font-family="Times New Roman,Times New Roman_MSFontService,sans-serif" font-weight="400" font-size="64" transform="matrix(1 0 0 1 848.566 1260)">sinkC</text><rect x="742.5" y="899.5" width="363" height="114" stroke="#000000" stroke-width="4.58333" stroke-miterlimit="8" fill="#DAE3F3"/><text font-family="Times New Roman,Times New Roman_MSFontService,sans-serif" font-weight="400" font-size="64" transform="matrix(1 0 0 1 818.201 980)">sourceB</text><rect x="742.5" y="670.5" width="363" height="115" stroke="#000000" stroke-width="4.58333" stroke-miterlimit="8" fill="#DAE3F3"/><text font-family="Times New Roman,Times New Roman_MSFontService,sans-serif" font-weight="400" font-size="64" transform="matrix(1 0 0 1 846.846 751)">sinkA</text><path d="M7.38697e-06-2.29167 89.0433-2.29138 89.0433 2.29195-7.38697e-06 2.29167ZM84.4601-13.7497 111.96 0.000360892 84.46 13.7503Z" fill="#ED7D31" transform="matrix(-1 0 0 1 1240.46 2312.5)"/><text font-family="Times New Roman,Times New Roman_MSFontService,sans-serif" font-weight="400" font-size="64" transform="matrix(1 0 0 1 1264.24 2335)">request</text><path d="M7.38697e-06-2.29167 89.0433-2.29138 89.0433 2.29195-7.38697e-06 2.29167ZM84.4601-13.7497 111.96 0.000360892 84.46 13.7503Z" fill="#4472C4" transform="matrix(-1 0 0 1 1656.46 2312.5)"/><text font-family="Times New Roman,Times New Roman_MSFontService,sans-serif" font-weight="400" font-size="64" transform="matrix(1 0 0 1 1680.52 2335)">response</text><path d="M7.38697e-06-2.29167 89.0433-2.29138 89.0433 2.29195-7.38697e-06 2.29167ZM84.4601-13.7497 111.96 0.000360892 84.46 13.7503Z" fill="#FFC000" transform="matrix(-1 0 0 1 2099.46 2312.5)"/><text font-family="Times New Roman,Times New Roman_MSFontService,sans-serif" font-weight="400" font-size="64" transform="matrix(1 0 0 1 2124.02 2335)">schedule</text><path d="M7.38697e-06-2.29167 89.0433-2.29138 89.0433 2.29195-7.38697e-06 2.29167ZM84.4601-13.7497 111.96 0.000360892 84.46 13.7503Z" fill="#00B050" transform="matrix(-1 0 0 1 2544.46 2312.5)"/><text font-family="Times New Roman,Times New Roman_MSFontService,sans-serif" font-weight="400" font-size="64" transform="matrix(1 0 0 1 2568.2 2335)">cache<tspan font-size="64" x="162.708" y="0">data</tspan></text><path d="M1073.5 2263.92C1073.5 2257.61 1078.61 2252.5 1084.92 2252.5L3279.08 2252.5C3285.39 2252.5 3290.5 2257.61 3290.5 2263.92L3290.5 2361.08C3290.5 2367.39 3285.39 2372.5 3279.08 2372.5L1084.92 2372.5C1078.61 2372.5 1073.5 2367.39 1073.5 2361.08Z" stroke="#000000" stroke-width="4.58333" stroke-miterlimit="8" stroke-dasharray="18.3333 13.75" fill="none" fill-rule="evenodd"/><path d="M7.38697e-06-2.29167 89.0433-2.29138 89.0433 2.29195-7.38697e-06 2.29167ZM84.4601-13.7497 111.96 0.000360892 84.46 13.7503Z" transform="matrix(-1 0 0 1 3042.46 2312.5)"/><text font-family="Times New Roman,Times New Roman_MSFontService,sans-serif" font-weight="400" font-size="64" transform="matrix(1 0 0 1 3066.88 2335)">others</text><rect x="2346.5" y="789.5" width="692" height="967" stroke="#000000" stroke-width="4.58333" stroke-miterlimit="8" stroke-dasharray="18.3333 13.75" fill="none"/><text font-family="Times New Roman,Times New Roman_MSFontService,sans-serif" font-weight="400" font-size="64" transform="matrix(1 0 0 1 2588.3 884)">MSHRs</text><path d="M2725.5 1096.21 2807.16 1096.21 2807.16 1149.25 2804.87 1146.96 2861.32 1146.96 2861.32 1151.54 2802.58 1151.54 2802.58 1098.5 2804.87 1100.79 2725.5 1100.79ZM2856.74 1135.5 2884.24 1149.25 2856.74 1163Z" fill="#FFC000"/><path d="M0-2.29167 63.803-2.29167 63.803 111.947 61.5113 109.655 166.564 109.655 166.564 114.239 59.2197 114.239 59.2197 0 61.5113 2.29167 0 2.29167ZM161.981 98.197 189.481 111.947 161.981 125.697Z" fill="#FFC000" transform="matrix(1 0 0 -1 2693.5 1319.45)"/><path d="M2965.5 1205.21 3015.19 1205.21 3015.19 1209.79 2965.5 1209.79ZM3010.61 1193.75 3038.11 1207.5 3010.61 1221.25Z" fill="#FFC000"/><rect x="2388.5" y="935.5" width="273" height="199" stroke="#000000" stroke-width="4.58333" stroke-miterlimit="8" fill="#FFFFFF"/><rect x="2420.5" y="967.5" width="273" height="199" stroke="#000000" stroke-width="4.58333" stroke-miterlimit="8" fill="#FFFFFF"/><rect x="2452.5" y="999.5" width="273" height="199" stroke="#000000" stroke-width="4.58333" stroke-miterlimit="8" fill="#FFFFFF"/><text font-family="Times New Roman,Times New Roman_MSFontService,sans-serif" font-weight="400" font-size="64" transform="matrix(1 0 0 1 2463.23 1122)">abc_mshr</text><path d="M0-2.29167 212.156-2.29167 212.156 67.5342 207.573 67.5342 207.573 0 209.864 2.29167 0 2.29167ZM223.614 62.9508 209.864 90.4508 196.114 62.9508Z" transform="matrix(1 0 0 -1 2693.5 1384.95)"/><path d="M0-2.29167 117.213-2.29167 117.213 307.777 114.921 305.485 165.677 305.485 165.677 310.069 112.63 310.069 112.63 0 114.921 2.29167 0 2.29167ZM161.093 294.027 188.593 307.777 161.093 321.527Z" fill="#FFC000" transform="matrix(1 0 0 -1 2694.5 1572.28)"/><rect x="2423.5" y="1506.5" width="273" height="199" stroke="#000000" stroke-width="4.58333" stroke-miterlimit="8" fill="#FFFFFF"/><text font-family="Times New Roman,Times New Roman_MSFontService,sans-serif" font-weight="400" font-size="64" transform="matrix(1 0 0 1 2464.72 1629)">c_mshr</text><rect x="2423.5" y="1253.5" width="273" height="199" stroke="#000000" stroke-width="4.58333" stroke-miterlimit="8" fill="#FFFFFF"/><text font-family="Times New Roman,Times New Roman_MSFontService,sans-serif" font-weight="400" font-size="64" transform="matrix(1 0 0 1 2448.68 1376)">bc_mshr</text><path d="M0-2.29167 254.001-2.29167 254.001 320.974 249.417 320.974 249.417 0 251.709 2.29167 0 2.29167ZM265.459 316.39 251.709 343.89 237.959 316.39Z" transform="matrix(1 0 0 -1 2694.5 1638.39)"/><rect x="2883.5" y="1118.5" width="82.0002" height="177" stroke="#000000" stroke-width="4.58333" stroke-miterlimit="8" fill="none"/><path d="M3297.74 1074.72 3084.03 1074.72 3084.03 569.5 3086.32 571.792 2288.42 571.792 2288.42 567.208 3088.61 567.208 3088.61 1072.43 3086.32 1070.14 3297.74 1070.14ZM2293 583.25 2265.5 569.5 2293 555.75Z" fill="#00B050"/><path d="M2265.5 450.208 3148.12 450.208 3148.12 836.449 3145.83 834.157 3273.78 834.157 3273.78 838.741 3143.54 838.741 3143.54 452.5 3145.83 454.792 2265.5 454.792ZM3269.19 822.699 3296.69 836.449 3269.19 850.199Z" fill="#00B050"/><rect x="1584.5" y="285.5" width="681" height="450" stroke="#000000" stroke-width="4.58333" stroke-miterlimit="8" fill="#FFFFFF"/><text font-family="Times New Roman,Times New Roman_MSFontService,sans-serif" font-weight="400" font-size="73" transform="matrix(1 0 0 1 1751.18 537)">BankedStore<tspan font-size="64" x="-154.777" y="-68">W</tspan><tspan font-size="64" x="-154.116" y="55">R/W</tspan><tspan font-size="64" x="444.647" y="57">W</tspan><tspan font-size="64" x="454.591" y="-66">R</tspan></text><rect x="742.5" y="1828.5" width="363" height="114" stroke="#000000" stroke-width="4.58333" stroke-miterlimit="8" fill="#DAE3F3"/><text font-family="Times New Roman,Times New Roman_MSFontService,sans-serif" font-weight="400" font-size="64" transform="matrix(1 0 0 1 850.57 1908)">sinkE</text><path d="M0-2.29167 1500.54-2.29167 1500.54 105.894 1495.95 105.894 1495.95 0 1498.24 2.29167 0 2.29167ZM1511.99 101.311 1498.24 128.811 1484.49 101.311Z" fill="#4472C4" transform="matrix(1 0 0 -1 1105.5 1885.31)"/><path d="M0-2.29167 810.384-2.29167 810.384 76.2869 808.092 73.9952 1217.88 73.9952 1217.88 78.5785 805.801 78.5785 805.801 0 808.092 2.29167 0 2.29167ZM1213.3 62.5369 1240.8 76.2869 1213.3 90.0369Z" fill="#FFC000" transform="matrix(-1 1.22465e-16 1.22465e-16 1 2346.3 880.5)"/><rect x="3295.5" y="808.5" width="363" height="155" stroke="#000000" stroke-width="4.58333" stroke-miterlimit="8" fill="#DAE3F3"/><text font-family="Times New Roman,Times New Roman_MSFontService,sans-serif" font-weight="400" font-size="64" transform="matrix(1 0 0 1 3370.97 909)">sourceC</text><rect x="3295.5" y="1044.5" width="363" height="154" stroke="#000000" stroke-width="4.58333" stroke-miterlimit="8" fill="#DAE3F3"/><text font-family="Times New Roman,Times New Roman_MSFontService,sans-serif" font-weight="400" font-size="64" transform="matrix(1 0 0 1 3399.61 1145)">sinkD</text><path d="M3296.5 1849.16 2757.15 1849.16 2759.44 1846.87 2759.44 1952.79 1471.21 1952.79 1471.21 1337.21 1519.62 1337.21 1519.62 1341.79 1473.5 1341.79 1475.79 1339.5 1475.79 1950.5 1473.5 1948.21 2757.15 1948.21 2754.86 1950.5 2754.86 1844.58 3296.5 1844.58ZM1515.04 1325.75 1542.54 1339.5 1515.04 1353.25Z" fill="#ED7D31"/><rect x="1145" y="1355" width="96.9999" height="91.0001" fill="#FFFFFF"/><text font-family="Times New Roman,Times New Roman_MSFontService,sans-serif" font-weight="400" font-size="64" transform="matrix(1 0 0 1 1145.72 1417)">pop<tspan font-size="64" x="149.256" y="638">evict</tspan><tspan font-size="64" x="-67.5256" y="680">grant</tspan><tspan font-size="64" x="1617.07" y="283">block</tspan></text><path d="M2941.38 1185.1 2945.63 1188.62 2949.17 1192.91 2951.7 1197.76 2953.26 1202.99 2953.8 1208.36 2953.33 1213.8 2951.76 1219.18 2949.1 1224.22 2945.44 1228.63 2941.15 1232.17 2936.3 1234.7 2931.07 1236.26 2925.7 1236.8 2920.26 1236.33 2914.89 1234.76 2909.84 1232.1 2905.43 1228.44 2901.89 1224.15 2899.37 1219.3 2897.8 1214.07 2897.22 1208.3 2900.67 1200.7 2904.84 1202.59 2901.65 1209.63 2901.84 1208.46 2902.34 1213.39 2902.26 1212.97 2903.7 1217.78 2903.53 1217.38 2905.84 1221.82 2905.58 1221.42 2908.83 1225.35 2908.53 1225.05 2912.59 1228.42 2912.19 1228.16 2916.82 1230.6 2916.39 1230.42 2921.33 1231.86 2920.89 1231.78 2925.89 1232.22 2925.46 1232.22 2930.39 1231.72 2929.97 1231.8 2934.78 1230.37 2934.38 1230.53 2938.82 1228.22 2938.42 1228.48 2942.35 1225.23 2942.05 1225.54 2945.42 1221.47 2945.16 1221.87 2947.6 1217.24 2947.42 1217.67 2948.86 1212.73 2948.78 1213.18 2949.22 1208.18 2949.22 1208.61 2948.72 1203.67 2948.8 1204.09 2947.37 1199.28 2947.53 1199.68 2945.22 1195.25 2945.48 1195.65 2942.23 1191.71 2942.54 1192.01 2938.46 1188.63ZM2889.2 1196.53 2917.21 1183.86 2910.54 1213.87Z"/><rect x="1717.5" y="1401.5" width="480" height="299" stroke="#000000" stroke-width="4.58333" stroke-miterlimit="8" fill="#FFFFFF"/><text font-family="Times New Roman,Times New Roman_MSFontService,sans-serif" font-weight="400" font-size="73" transform="matrix(1 0 0 1 1815.72 1577)">Directory<tspan font-size="64" x="328.079" y="-91">R</tspan><tspan font-size="64" x="315.424" y="80">W</tspan></text><path d="M2264.16 1284.5 2264.16 1453.47 2219.42 1453.47 2219.42 1448.89 2261.87 1448.89 2259.58 1451.18 2259.58 1284.5ZM2224 1464.93 2196.5 1451.18 2224 1437.43Z" fill="#ED7D31"/></g></svg>